<?xml version="1.0" encoding="UTF-8"?>
<!DOCTYPE svg PUBLIC "-//W3C//DTD SVG 1.1//EN" "http://www.w3.org/Graphics/SVG/1.1/DTD/svg11.dtd">
<!-- Creator: CorelDRAW 2019 (64-Bit) -->
<svg xmlns="http://www.w3.org/2000/svg" xml:space="preserve" width="155.895mm" height="151.705mm" version="1.1" style="shape-rendering:geometricPrecision; text-rendering:geometricPrecision; image-rendering:optimizeQuality; fill-rule:evenodd; clip-rule:evenodd"
viewBox="0 0 929.06 904.09"
 xmlns:xlink="http://www.w3.org/1999/xlink">
 <defs>
  <style type="text/css">
   <![CDATA[
    .fil0 {fill:#FB95F2;fill-rule:nonzero}
   ]]>
  </style>
 </defs>
 <g id="Capa_x0020_1">
  <metadata id="CorelCorpID_0Corel-Layer"/>
  <path class="fil0" d="M804.48 529.64l-0.01 -1.41c-0.41,-25.51 -24.65,-43.57 -49.23,-36.68 -16.83,4.87 -28.18,20.08 -28.05,37.6l-0 1.12c-0.06,25.99 24.69,44.62 49.66,37.3 16.35,-4.92 27.46,-19.72 27.62,-36.79l0 -1.12zm-115.64 -66.65c22.58,12.9 50.99,0.49 56.93,-24.83 3.77,-16.64 -3.62,-33.62 -18.41,-42.16l-0.95 -0.55c-22.91,-12.93 -51.54,0.13 -56.93,25.86 -3.31,16.49 4.19,33.01 18.8,41.36l0.56 0.32zm-115.71 66.24c-0.06,-26.29 -25.54,-44.79 -50.58,-36.76 -15.97,5.27 -26.66,19.92 -26.7,36.76l0 1.12c0.24,26.5 26.18,44.83 51.27,36.28 15.62,-5.46 25.97,-19.98 26.01,-36.53l0 -0.87z"/>
  <path class="fil0" d="M574.15 467.53c22.58,12.9 50.99,0.49 56.93,-24.83 3.77,-16.64 -3.62,-33.62 -18.41,-42.16l-0.95 -0.55c-22.91,-12.93 -51.54,0.13 -56.93,25.86 -3.31,16.49 4.19,33.01 18.8,41.36l0.56 0.32z"/>
  <path class="fil0" d="M448.55 865.45c0,21.34 -17.3,38.64 -38.64,38.64 -21.34,0 -38.64,-17.3 -38.64,-38.64l0 -0.49c0,-21.34 17.3,-38.64 38.64,-38.64 21.34,0 38.64,17.3 38.64,38.64l0 0.49z"/>
  <path class="fil0" d="M398.61 744.87c-11.3,23.75 3.63,51.42 29.7,55.03 16.69,2.19 32.63,-6.45 39.97,-21.59l0.38 -0.78c11.3,-23.75 -3.63,-51.42 -29.7,-55.03 -16.69,-2.19 -32.63,6.45 -39.97,21.59l-0.38 0.78zm433.6 33.8c11.68,24.21 43.66,29.47 62.51,10.29 11.34,-11.69 14.18,-28.98 7.18,-43.69l-0.46 -0.96c-7.45,-15.26 -23.74,-23.83 -40.54,-21.34 -25.79,4.01 -40.32,31.58 -28.98,55.09l0.29 0.61zm-55.77 -70.41c13.07,10.36 30.9,11.3 44.98,2.37 21.65,-13.96 23.94,-44.6 4.62,-61.6 -0.44,-0.38 -0.88,-0.75 -1.34,-1.12l-0.84 -0.67c-20.62,-16.18 -50.75,-7.85 -60.13,16.64 -5.92,15.87 -1.06,33.4 12.18,43.97l0.52 0.42zm-80.66 -39.27c26.45,5.88 50.48,-16.23 46.8,-43.1 -2.3,-15.96 -14.02,-28.66 -29.74,-32.28l-0.85 -0.19c-26.45,-5.88 -50.48,16.23 -46.8,43.1 2.3,15.96 14.02,28.66 29.74,32.28l0.85 0.19zm-90 -0.29c25.81,-5.94 38.19,-35.17 24.46,-57.85 -8.72,-14.18 -25.25,-21.14 -41.5,-17.53l-1.02 0.23c-25.22,5.92 -37.63,34.13 -24.92,56.73 8.55,14.91 25.53,22.38 42.3,18.57l0.68 -0.15zm-80.9 38.75c20.81,-16.72 18.91,-48.75 -3.68,-62.97 -14.02,-8.68 -31.67,-7.62 -44.58,2.62l-0.81 0.65c-20.59,16.71 -18.76,48.38 3.55,62.71 14.07,8.86 32,7.87 44.97,-2.56l0.55 -0.44z"/>
  <path class="fil0" d="M851.78 864.96c0,-21.34 17.3,-38.64 38.64,-38.64 21.34,0 38.64,17.3 38.64,38.64l0 0.49c0,21.34 -17.3,38.64 -38.64,38.64 -21.34,0 -38.64,-17.3 -38.64,-38.64l0 -0.49z"/>
  <path class="fil0" d="M890.42 826.81c21.34,0 38.64,17.3 38.64,38.64 0,21.34 -17.3,38.64 -38.64,38.64l-0.49 0c-21.34,0 -38.64,-17.3 -38.64,-38.64 0,-21.34 17.3,-38.64 38.64,-38.64l0.49 0z"/>
  <path class="fil0" d="M770.84 904.09c26.29,-0.06 44.79,-25.54 36.76,-50.58 -5.27,-15.97 -19.92,-26.66 -36.76,-26.7l-0.87 0c-26.29,0.06 -44.79,25.54 -36.76,50.58 5.27,15.97 19.92,26.66 36.76,26.7l0.87 0zm-241.13 -77.28c-26.29,0.06 -44.79,25.54 -36.76,50.58 5.27,15.97 19.92,26.66 36.76,26.7l0.87 0c26.29,-0.06 44.79,-25.54 36.76,-50.58 -5.27,-15.97 -19.92,-26.66 -36.76,-26.7l-0.87 0zm120.13 0c-26.29,0.06 -44.79,25.54 -36.76,50.58 5.27,15.97 19.92,26.66 36.76,26.7l0.87 0c26.29,-0.06 44.79,-25.54 36.76,-50.58 -5.27,-15.97 -19.92,-26.66 -36.76,-26.7l-0.87 0z"/>
  <path class="fil0" d="M410.41 826.81c21.34,0 38.64,17.3 38.64,38.64 0,21.34 -17.3,38.64 -38.64,38.64l-0.49 0c-21.34,0 -38.64,-17.3 -38.64,-38.64 0,-21.34 17.3,-38.64 38.64,-38.64l0.49 0z"/>
  <path class="fil0" d="M77.28 669.14c0,21.34 -17.3,38.64 -38.64,38.64 -21.34,0 -38.64,-17.3 -38.64,-38.64l0 -0.49c0,-21.34 17.3,-38.64 38.64,-38.64 21.34,0 38.64,17.3 38.64,38.64l0 0.49z"/>
  <path class="fil0" d="M153.61 511.13c20.81,-16.72 18.91,-48.75 -3.68,-62.97 -14.02,-8.68 -31.67,-7.62 -44.58,2.62l-0.81 0.65c-20.59,16.71 -18.76,48.39 3.55,62.71 14.07,8.86 32,7.87 44.97,-2.56l0.55 -0.44z"/>
  <path class="fil0" d="M234.51 472.39c25.81,-5.94 38.19,-35.17 24.46,-57.85 -8.72,-14.18 -25.25,-21.14 -41.5,-17.53l-1.02 0.23c-25.22,5.92 -37.63,34.13 -24.92,56.73 8.55,14.91 25.53,22.38 42.3,18.57l0.68 -0.15z"/>
  <path class="fil0" d="M324.51 472.68c26.45,5.88 50.48,-16.23 46.8,-43.1 -2.3,-15.96 -14.02,-28.66 -29.74,-32.28l-0.85 -0.19c-26.45,-5.88 -50.48,16.23 -46.8,43.1 2.3,15.96 14.02,28.66 29.74,32.28l0.85 0.19z"/>
  <path class="fil0" d="M418.32 491.49c13.07,10.36 30.9,11.3 44.98,2.37 21.65,-13.96 23.94,-44.6 4.62,-61.6 -0.44,-0.38 -0.88,-0.75 -1.34,-1.12l-0.84 -0.67c-20.62,-16.18 -50.75,-7.85 -60.13,16.64 -5.92,15.88 -1.06,33.4 12.18,43.97l0.52 0.42z"/>
  <path class="fil0" d="M27.34 548.56c-11.3,23.75 3.63,51.42 29.7,55.03 16.69,2.19 32.63,-6.45 39.97,-21.59l0.38 -0.78c11.3,-23.75 -3.63,-51.42 -29.7,-55.03 -16.69,-2.19 -32.63,6.45 -39.97,21.59l-0.38 0.78z"/>
  <path class="fil0" d="M399.57 707.78c26.29,-0.06 44.79,-25.54 36.76,-50.58 -5.27,-15.97 -19.92,-26.66 -36.76,-26.7l-0.87 0c-26.29,0.06 -44.79,25.54 -36.76,50.58 5.27,15.97 19.92,26.66 36.76,26.7l0.87 0zm-241.13 -77.28c-26.29,0.06 -44.79,25.54 -36.76,50.58 5.27,15.97 19.92,26.66 36.76,26.7l0.87 0c26.29,-0.06 44.79,-25.54 36.76,-50.58 -5.27,-15.97 -19.92,-26.66 -36.76,-26.7l-0.87 0zm120.13 0c-26.29,0.06 -44.79,25.54 -36.76,50.58 5.27,15.97 19.92,26.66 36.76,26.7l0.87 0c26.29,-0.06 44.79,-25.54 36.76,-50.58 -5.27,-15.97 -19.92,-26.66 -36.76,-26.7l-0.87 0z"/>
  <path class="fil0" d="M39.13 630.5c21.34,0 38.64,17.3 38.64,38.64 0,21.34 -17.3,38.64 -38.64,38.64l-0.49 0c-21.34,0 -38.64,-17.3 -38.64,-38.64 0,-21.34 17.3,-38.64 38.64,-38.64l0.49 0z"/>
  <path class="fil0" d="M437.84 317.77l-0.01 -1.41c-0.41,-25.51 -24.65,-43.57 -49.23,-36.68 -16.83,4.87 -28.18,20.08 -28.05,37.6l-0 1.12c-0.06,25.99 24.69,44.62 49.66,37.3 16.35,-4.92 27.46,-19.72 27.62,-36.79l0 -1.12zm-115.64 -66.65c22.58,12.9 50.99,0.49 56.93,-24.83 3.77,-16.64 -3.62,-33.62 -18.41,-42.16l-0.95 -0.55c-22.91,-12.93 -51.54,0.13 -56.93,25.86 -3.31,16.49 4.19,33.01 18.8,41.36l0.56 0.32zm-76.84 -0.29c23.03,-13.5 25.84,-45.46 5.57,-62.83 -12.59,-10.64 -30.22,-12.17 -44.49,-3.93l-0.96 0.56c-22.61,13.47 -25.56,44.75 -5.9,62.25 12.67,11.09 30.71,12.79 45.23,4.27l-39.33 -66.52 39.33 66.52 0.55 -0.31zm-38.87 66.53c-0.06,-26.29 -25.54,-44.79 -50.58,-36.76 -15.97,5.27 -26.66,19.92 -26.7,36.76l0 1.12c0.24,26.5 26.18,44.83 51.27,36.28 15.62,-5.46 25.97,-19.98 26.01,-36.53l0 -0.87z"/>
  <path class="fil0" d="M317.93 4.84c17.52,-10.04 39.86,-3.97 49.9,13.55 10.04,17.52 3.97,39.86 -13.55,49.9l-0.41 0.23c-17.52,10.04 -39.86,3.97 -49.9,-13.55 -10.04,-17.52 -3.97,-39.86 13.55,-49.9l0.41 -0.23z"/>
  <path class="fil0" d="M256.09 124.54c21.56,-12.41 24.76,-42.04 6.39,-58.82 -11.84,-10.63 -28.9,-12.52 -42.74,-4.63l-0.71 0.41c-21.56,12.41 -24.76,42.04 -6.39,58.82 11.84,10.64 28.89,12.52 42.74,4.63l0.71 -0.41zm-234.33 49.95c-21.56,12.41 -24.76,42.04 -6.39,58.82 11.84,10.64 28.89,12.52 42.74,4.63l0.72 -0.41c21.56,-12.41 24.76,-42.04 6.39,-58.82 -11.84,-10.63 -28.9,-12.52 -42.74,-4.63l-0.72 0.41zm98.63 -56.5c-21.56,12.41 -24.76,42.04 -6.39,58.82 11.84,10.64 28.9,12.52 42.74,4.63l0.71 -0.41c21.56,-12.41 24.76,-42.04 6.39,-58.82 -11.84,-10.64 -28.89,-12.52 -42.74,-4.63l-0.71 0.41z"/>
 </g>
</svg>
