<svg id="Capa_1" data-name="Capa 1" xmlns="http://www.w3.org/2000/svg" viewBox="0 0 40.35 40.1"><defs><style>.cls-1{fill:#252859;}</style></defs><path class="cls-1" d="M20.17,1a19.2,19.2,0,0,0-3,38.16V25.72H12.3V20.17h4.87V15.94a7.56,7.56,0,0,1,2-5.54l.06-.05A5.78,5.78,0,0,1,20,9.72a4.94,4.94,0,0,1,.49-.3c.19-.11.4-.21.6-.3a8.29,8.29,0,0,1,3.36-.65,29.75,29.75,0,0,1,4.29.37v4.73H26.3a3,3,0,0,0-2.57,1.09,3.25,3.25,0,0,0-.56,1.91v3.6H28.5l-.85,5.55H23.17V39.13h0a19.2,19.2,0,0,0,16.2-19h0A19.2,19.2,0,0,0,20.17,1Z"/></svg>