<svg id="Capa_1" data-name="Capa 1" xmlns="http://www.w3.org/2000/svg" viewBox="0 0 100.09 100.09"><defs><style>.cls-1{fill:#252859;}</style></defs><path class="cls-1" d="M8.06,14.3a6.88,6.88,0,0,1-4.92-2.06l-.06-.06a6.89,6.89,0,0,1,9.83-9.67l.06.07A6.89,6.89,0,0,1,8.06,14.3Z"/><path class="cls-1" d="M78.14,85.46a6.83,6.83,0,0,1-4.9-2l-.13-.12a6.89,6.89,0,1,1,9.81-9.68l.13.13a6.88,6.88,0,0,1-4.91,11.72Zm-14-14.23a6.87,6.87,0,0,1-4.91-2l-.12-.13a6.89,6.89,0,1,1,9.81-9.67l.12.12a6.89,6.89,0,0,1-4.9,11.73ZM50.11,57a6.91,6.91,0,0,1-4.91-2l-.12-.13a6.89,6.89,0,0,1,9.81-9.67l.12.12A6.89,6.89,0,0,1,50.11,57Zm-14-14.24a6.87,6.87,0,0,1-4.91-2l-.12-.12a6.89,6.89,0,1,1,9.81-9.68L41,31a6.88,6.88,0,0,1-4.91,11.72Zm-14-14.23a6.84,6.84,0,0,1-4.9-2.05L17,26.35a6.89,6.89,0,0,1,9.82-9.67l.12.12a6.89,6.89,0,0,1-4.91,11.73Z"/><path class="cls-1" d="M92.1,99.64a6.86,6.86,0,0,1-4.9-2l-.06-.06a6.9,6.9,0,0,1,0-9.75,7.08,7.08,0,0,1,2.25-1.48A6.9,6.9,0,0,1,99,92.66v.09a6.9,6.9,0,0,1-6.89,6.89Z"/><path class="cls-1" d="M92.1,78.42a6.89,6.89,0,0,1-6.89-6.89v-.19a6.89,6.89,0,0,1,13.78,0v.19A6.9,6.9,0,0,1,92.1,78.42Zm0-21.32a6.88,6.88,0,0,1-6.89-6.89V50A6.89,6.89,0,0,1,99,50v.19A6.89,6.89,0,0,1,92.1,57.1Z"/><path class="cls-1" d="M92.1,35.78a6.88,6.88,0,0,1-6.89-6.89v-.08a6.89,6.89,0,1,1,13.78,0v.08A6.89,6.89,0,0,1,92.1,35.78Z"/><path class="cls-1" d="M28.06,99.64H28a6.89,6.89,0,0,1,0-13.78h.1a6.89,6.89,0,0,1,0,13.78Z"/><path class="cls-1" d="M70.82,99.64h-.19a6.89,6.89,0,1,1,0-13.78h.19a6.89,6.89,0,0,1,0,13.78Zm-21.38,0h-.19a6.89,6.89,0,0,1,0-13.78h.19a6.89,6.89,0,0,1,0,13.78Z"/><path class="cls-1" d="M92.1,99.64H92a6.89,6.89,0,1,1,0-13.78h.09a6.89,6.89,0,0,1,0,13.78Z"/></svg>