<svg id="Capa_1" data-name="Capa 1" xmlns="http://www.w3.org/2000/svg" viewBox="0 0 40.14 40.14"><defs><style>.cls-1,.cls-2{fill:#f2f2f2;}.cls-2{fill-rule:evenodd;}</style></defs><circle class="cls-1" cx="20.07" cy="20.07" r="4.03"/><path class="cls-2" d="M29.49,12.94a3.71,3.71,0,0,0-.9-1.39,3.9,3.9,0,0,0-1.39-.91A6.84,6.84,0,0,0,25,10.23c-1.27-.06-1.65-.07-4.88-.07s-3.61,0-4.89.07a6.7,6.7,0,0,0-2.24.41,4.07,4.07,0,0,0-2.3,2.3,6.7,6.7,0,0,0-.41,2.24c-.06,1.28-.07,1.66-.07,4.89s0,3.61.07,4.88a6.84,6.84,0,0,0,.41,2.25,3.9,3.9,0,0,0,.91,1.39,3.71,3.71,0,0,0,1.39.9,6.63,6.63,0,0,0,2.24.42c1.28.06,1.66.07,4.89.07s3.61,0,4.88-.07a6.76,6.76,0,0,0,2.25-.42,4,4,0,0,0,2.29-2.29A6.76,6.76,0,0,0,29.91,25c.06-1.27.07-1.65.07-4.88s0-3.61-.07-4.89A6.63,6.63,0,0,0,29.49,12.94ZM20.07,26.27a6.21,6.21,0,1,1,6.21-6.2A6.2,6.2,0,0,1,20.07,26.27Zm6.45-11.2A1.46,1.46,0,1,1,28,13.61,1.45,1.45,0,0,1,26.52,15.07Z"/><path class="cls-2" d="M20.07.87a19.2,19.2,0,1,0,19.2,19.2A19.19,19.19,0,0,0,20.07.87Zm12,24.18A8.91,8.91,0,0,1,31.52,28a6.06,6.06,0,0,1-1.39,2.14A6,6,0,0,1,28,31.52a8.91,8.91,0,0,1-2.94.56c-1.29.06-1.7.08-5,.08s-3.7,0-5-.08a8.89,8.89,0,0,1-2.93-.56A5.89,5.89,0,0,1,10,30.13,6.09,6.09,0,0,1,8.61,28a9.17,9.17,0,0,1-.56-2.94C8,23.76,8,23.35,8,20.07s0-3.7.07-5a9.16,9.16,0,0,1,.56-2.93,6.25,6.25,0,0,1,3.54-3.54,8.89,8.89,0,0,1,2.93-.56C16.37,8,16.79,8,20.07,8s3.69,0,5,.07A8.91,8.91,0,0,1,28,8.61,6,6,0,0,1,30.13,10a5.89,5.89,0,0,1,1.39,2.14,8.89,8.89,0,0,1,.56,2.93c.06,1.29.08,1.7.08,5S32.14,23.76,32.08,25.05Z"/></svg>