<svg id="Capa_1" data-name="Capa 1" xmlns="http://www.w3.org/2000/svg" viewBox="0 0 40.21 40.21"><defs><style>.cls-1{fill:#f2f2f2;}</style></defs><path class="cls-1" d="M20.11.91a19.2,19.2,0,1,0,19.2,19.2A19.19,19.19,0,0,0,20.11.91ZM13.47,31.45H9.38c-.22,0-.29-.05-.29-.28q0-7.3,0-14.6c0-.2.05-.27.27-.27h4.15c.27,0,.3.1.3.33V23.9h0q0,3.6,0,7.21C13.82,31.38,13.75,31.46,13.47,31.45Zm-2-17.24a2.73,2.73,0,1,1,2.73-2.73h0A2.74,2.74,0,0,1,11.46,14.21Zm20,16.93c0,.25-.07.31-.31.31h-4.1c-.24,0-.29-.07-.29-.3q0-3.78,0-7.57a6.67,6.67,0,0,0-.22-1.88,2.11,2.11,0,0,0-2.32-1.64,2.52,2.52,0,0,0-2.67,2.53,9.36,9.36,0,0,0-.08,1.18c0,2.46,0,4.91,0,7.37,0,.24-.06.31-.31.31H17.06c-.22,0-.28-.06-.28-.28V16.59c0-.24.07-.29.3-.29H21c.24,0,.31.07.3.3,0,.58,0,1.16,0,1.74h0c.31-.35.57-.71.89-1a5,5,0,0,1,3.55-1.4A8.32,8.32,0,0,1,28,16.2a4.34,4.34,0,0,1,3.1,3.25,13.43,13.43,0,0,1,.41,3.73C31.49,25.84,31.48,28.49,31.48,31.14Z"/></svg>