<svg id="Capa_1" data-name="Capa 1" xmlns="http://www.w3.org/2000/svg" viewBox="0 0 1080 1080"><defs><style>.cls-1{fill:#252859;}</style></defs><path class="cls-1" d="M590.92,1063.05a29.41,29.41,0,0,1-3-58.67l1.17-.12a29.41,29.41,0,1,1,6,58.51l-1.17.12A28.78,28.78,0,0,1,590.92,1063.05ZM488.46,1063c-1,0-2,0-3.06-.15l-1.16-.13a29.41,29.41,0,0,1,6-58.51l1.18.12a29.41,29.41,0,0,1-3,58.67Zm204-21.2a29.42,29.42,0,0,1-9.06-57.4l1.11-.36a29.41,29.41,0,0,1,18.15,56l-1.12.37A29.58,29.58,0,0,1,692.45,1041.78Zm-305.51-.2a29.48,29.48,0,0,1-9-1.42l-1.32-.43A29.41,29.41,0,1,1,395,983.86l.93.3a29.42,29.42,0,0,1-9,57.42ZM787.3,999.73a29.41,29.41,0,0,1-14.71-54.89l1-.56A29.41,29.41,0,1,1,803,995.19l-1.06.61A29.36,29.36,0,0,1,787.3,999.73Zm-495.17-.33a29.22,29.22,0,0,1-14.61-3.9l-1.23-.71A29.41,29.41,0,0,1,306,944l.81.47a29.41,29.41,0,0,1-14.66,54.92Zm579.13-60.52a29.41,29.41,0,0,1-19.76-51.2l.94-.84a29.41,29.41,0,1,1,39.37,43.7l-.81.72A29.25,29.25,0,0,1,871.26,938.88Zm-663-.46a29.27,29.27,0,0,1-19.62-7.51l-.92-.83a29.41,29.41,0,1,1,39.37-43.7l.82.74a29.41,29.41,0,0,1-19.65,51.3ZM940.82,862A29.41,29.41,0,0,1,917,815.29l.77-1A29.41,29.41,0,1,1,965.27,849l-.62.86A29.37,29.37,0,0,1,940.82,862Zm-802.05-.55A29.38,29.38,0,0,1,115,849.31l-.68-.95a29.41,29.41,0,1,1,47.57-34.6l.69,1a29.42,29.42,0,0,1-23.77,46.71ZM993,772.3a29.42,29.42,0,0,1-26.82-41.44l.44-1a29.41,29.41,0,1,1,53.76,23.87l-.52,1.17A29.43,29.43,0,0,1,993,772.3Zm-906.2-.59a29.42,29.42,0,0,1-26.87-17.4l-.51-1.16a29.41,29.41,0,0,1,53.77-23.85l.43,1a29.42,29.42,0,0,1-26.82,41.43Zm938.5-98a29.43,29.43,0,0,1-28.79-35.54l.23-1.09a29.41,29.41,0,0,1,57.56,12.12l-.26,1.21A29.42,29.42,0,0,1,1025.27,673.71ZM54.6,673.1a29.42,29.42,0,0,1-28.73-23.25l-.28-1.3a29.41,29.41,0,0,1,57.58-12l.21,1A29.44,29.44,0,0,1,54.6,673.1Zm981.62-102.52h-.11a29.41,29.41,0,0,1-29.3-29.52V539a29.41,29.41,0,0,1,29.3-29.52h.12a29.4,29.4,0,0,1,29.4,29.29v2.51A29.41,29.41,0,0,1,1036.22,570.58ZM43.78,570a29.41,29.41,0,0,1-29.41-29.41v-1.17a29.41,29.41,0,1,1,58.82,0v1.17A29.41,29.41,0,0,1,43.78,570ZM54.43,466.81a29.45,29.45,0,0,1-28.81-35.48l.25-1.21a29.41,29.41,0,0,1,57.54,12.24l-.23,1.09A29.43,29.43,0,0,1,54.43,466.81Zm971-.48a29.42,29.42,0,0,1-28.76-23.4l-.21-1A29.41,29.41,0,1,1,1054,429.6l.28,1.3a29.44,29.44,0,0,1-28.82,35.43ZM86.29,368.11a29.42,29.42,0,0,1-26.86-41.35l.52-1.17a29.41,29.41,0,1,1,53.68,24.05l-.44,1A29.43,29.43,0,0,1,86.29,368.11Zm907.23-.43a29.43,29.43,0,0,1-26.89-17.45l-.45-1a29.41,29.41,0,1,1,53.69-24l.5,1.12a29.43,29.43,0,0,1-26.85,41.38ZM138.11,278.25a29.42,29.42,0,0,1-23.8-46.66l.82-1.13a29.41,29.41,0,1,1,47.39,34.85l-.56.77A29.38,29.38,0,0,1,138.11,278.25Zm803.53-.35a29.35,29.35,0,0,1-23.81-12.12l-.64-.87a29.41,29.41,0,1,1,47.47-34.74l.74,1a29.42,29.42,0,0,1-23.76,46.71ZM207.47,201.09a29.41,29.41,0,0,1-19.76-51.21l1-.89A29.41,29.41,0,0,1,228,192.79l-.75.68A29.32,29.32,0,0,1,207.47,201.09Zm664.75-.28a29.32,29.32,0,0,1-19.74-7.62l-.76-.68A29.41,29.41,0,1,1,891,148.71l1,.89a29.41,29.41,0,0,1-19.75,51.21ZM291.26,140A29.41,29.41,0,0,1,276.5,85.08l1.06-.61a29.41,29.41,0,1,1,29.37,51l-1,.56A29.18,29.18,0,0,1,291.26,140Zm497.1-.22a29.22,29.22,0,0,1-14.74-4l-.89-.51a29.41,29.41,0,0,1,29.27-51l1.15.66a29.41,29.41,0,0,1-14.79,54.85ZM385.89,97.59a29.42,29.42,0,0,1-9.16-57.37l1.21-.39a29.41,29.41,0,1,1,18.15,56l-1,.33A29.42,29.42,0,0,1,385.89,97.59Zm307.78-.15A29.39,29.39,0,0,1,684.53,96l-1-.32a29.41,29.41,0,0,1,18-56l1.25.4a29.41,29.41,0,0,1-9.13,57.37ZM487.29,76a29.41,29.41,0,0,1-3.1-58.66l1.28-.13a29.41,29.41,0,1,1,6,58.51l-1.06.11A30.71,30.71,0,0,1,487.29,76Zm104.94,0a28.41,28.41,0,0,1-3-.16L588,75.62a29.41,29.41,0,1,1,6-58.51l1.16.12a29.41,29.41,0,0,1-3,58.67Z"/><path class="cls-1" d="M540.87,977.4h-2.25a29.41,29.41,0,0,1,.22-58.82h2a29.41,29.41,0,1,1,0,58.82Zm100.24-12.68a29.41,29.41,0,0,1-7-58l.69-.18a29.41,29.41,0,0,1,14.88,56.91l-1.56.39A29.33,29.33,0,0,1,641.11,964.72Zm-202.5-.07a29.78,29.78,0,0,1-7.26-.91l-1.17-.3a29.41,29.41,0,0,1,14.7-57l.94.25a29.41,29.41,0,0,1-7.21,57.92ZM736.2,927.07a29.42,29.42,0,0,1-14.27-55.15l1-.53a29.41,29.41,0,0,1,28.57,51.41l-1.06.59A29.24,29.24,0,0,1,736.2,927.07Zm-392.67-.15a29.22,29.22,0,0,1-14.16-3.66l-1.07-.58a29.41,29.41,0,1,1,28.48-51.47l1,.53a29.42,29.42,0,0,1-14.22,55.18ZM818.85,867a29.41,29.41,0,0,1-20.25-50.74l1-.91a29.41,29.41,0,0,1,40.26,42.89l-.73.69A29.34,29.34,0,0,1,818.85,867Zm-558-.23a29.31,29.31,0,0,1-20.12-8l-.9-.85a29.41,29.41,0,1,1,40.37-42.78l.79.74a29.42,29.42,0,0,1-20.14,50.86Zm623.24-78.42A29.42,29.42,0,0,1,859.41,743l.5-.8a29.41,29.41,0,0,1,49.74,31.41l-.74,1.16A29.39,29.39,0,0,1,884.13,788.32ZM195.69,788a29.4,29.4,0,0,1-24.83-13.61l-.67-1a29.41,29.41,0,1,1,49.71-31.45l.57.89A29.42,29.42,0,0,1,195.69,788Zm732.24-92.12a29.46,29.46,0,0,1-28-38.53l.35-1.07a29.41,29.41,0,1,1,56,18.14l-.37,1.14A29.44,29.44,0,0,1,927.93,695.92ZM152,695.63a29.41,29.41,0,0,1-28-20.35l-.34-1A29.41,29.41,0,1,1,179.58,656l.38,1.16a29.43,29.43,0,0,1-28,38.49ZM947.19,595.45c-.62,0-1.24,0-1.87-.06a29.35,29.35,0,0,1-27.51-31.13l.07-1.06a29.41,29.41,0,0,1,58.72,3.5l-.07,1.13A29.48,29.48,0,0,1,947.19,595.45Zm-814.4-.23a29.41,29.41,0,0,1-29.33-27.55l-.07-1.26a29.41,29.41,0,1,1,58.71-3.51l.07,1.05a29.41,29.41,0,0,1-27.49,31.21Q133.72,595.22,132.79,595.22ZM940.88,493.5A29.42,29.42,0,0,1,912,469.56l-.19-1a29.41,29.41,0,1,1,57.75-11.16l.24,1.24a29.45,29.45,0,0,1-28.93,34.89Zm-801.7-.29a29.44,29.44,0,0,1-28.93-34.89l.23-1.24a29.41,29.41,0,0,1,57.76,11.15l-.2,1A29.41,29.41,0,0,1,139.18,493.21Zm770.24-96.94a29.43,29.43,0,0,1-26.65-16.93l-.43-.91a29.41,29.41,0,1,1,53.13-25.25l.56,1.18a29.44,29.44,0,0,1-26.61,41.91ZM170.72,396A29.41,29.41,0,0,1,144.14,354l.56-1.18a29.41,29.41,0,0,1,53.08,25.34l-.44.91A29.39,29.39,0,0,1,170.72,396Zm683.95-86A29.34,29.34,0,0,1,832,299.29l-.69-.83a29.41,29.41,0,1,1,45.24-37.59l.79,1A29.41,29.41,0,0,1,854.67,310Zm-629.09-.3a29.41,29.41,0,0,1-22.66-48.14l.79-1A29.41,29.41,0,0,1,249,298.16l-.68.83A29.36,29.36,0,0,1,225.58,309.67Zm554.65-69.82a29.25,29.25,0,0,1-17.35-5.69l-.82-.59a29.41,29.41,0,0,1,34.52-47.63l1.06.77a29.41,29.41,0,0,1-17.41,53.14Zm-480.16-.23a29.41,29.41,0,0,1-17.34-53.19l.94-.68a29.41,29.41,0,1,1,34.62,47.55l-.93.68A29.27,29.27,0,0,1,300.07,239.62Zm390.74-49.31a29.34,29.34,0,0,1-10.91-2.11l-.95-.38a29.41,29.41,0,1,1,21.58-54.72l1.21.49a29.41,29.41,0,0,1-10.93,56.72Zm-301.32-.12a29.42,29.42,0,0,1-10.84-56.76l1.08-.43a29.41,29.41,0,0,1,21.65,54.69l-1.07.43A29.31,29.31,0,0,1,389.49,190.19Zm202.37-25.5a28.24,28.24,0,0,1-3.76-.24l-1-.13A29.41,29.41,0,1,1,594.28,106l1.25.15a29.41,29.41,0,0,1-3.67,58.59Zm-103.45,0a29.41,29.41,0,0,1-3.67-58.59l1.12-.14a29.41,29.41,0,0,1,7.36,58.36l-1.05.13A29.9,29.9,0,0,1,488.41,164.66Z"/><path class="cls-1" d="M540.67,889.16h-2.08a29.41,29.41,0,1,1,.43-58.82h1.65a29.41,29.41,0,1,1,0,58.82Zm102.6-17.1a29.41,29.41,0,0,1-9.52-57.24l1.1-.38A29.41,29.41,0,0,1,654,870.07l-1.16.4A29.4,29.4,0,0,1,643.27,872.06Zm-207.07-.18a29.35,29.35,0,0,1-9.52-1.59l-1.32-.46a29.41,29.41,0,0,1,19.42-55.52l.94.33a29.41,29.41,0,0,1-9.52,57.24ZM735.86,822a29.42,29.42,0,0,1-18.06-52.65l.89-.69a29.42,29.42,0,0,1,36.18,46.39l-1,.77A29.29,29.29,0,0,1,735.86,822Zm-392.16-.35a29.28,29.28,0,0,1-18-6.18l-1.12-.88A29.41,29.41,0,0,1,361,768.43l.75.6a29.41,29.41,0,0,1-18.05,52.64Zm463.55-76.9a29.43,29.43,0,0,1-24.64-45.44l.72-1.1a29.41,29.41,0,0,1,49.2,32.24l-.59.9A29.38,29.38,0,0,1,807.25,744.77Zm-534.81-.47A29.4,29.4,0,0,1,247.81,731l-.63-1a29.41,29.41,0,1,1,49.17-32.28l.67,1a29.43,29.43,0,0,1-24.58,45.53Zm577.43-95.76a29.45,29.45,0,0,1-28.54-36.6l.31-1.21a29.41,29.41,0,1,1,57,14.47l-.28,1.11A29.42,29.42,0,0,1,849.87,648.54ZM230,648a29.41,29.41,0,0,1-28.48-22.18l-.33-1.31a29.41,29.41,0,1,1,57.09-14.16l.25,1A29.43,29.43,0,0,1,230,648ZM858.7,543.7a29.4,29.4,0,0,1-29.29-27.18l-.08-1A29.41,29.41,0,1,1,888,510.66l.11,1.4A29.42,29.42,0,0,1,861,543.62C860.21,543.68,859.45,543.7,858.7,543.7Zm-637.36-.53c-.82,0-1.65,0-2.48-.11A29.41,29.41,0,0,1,192,511.31l.1-1.28a29.41,29.41,0,0,1,58.61,5.06l-.1,1.11A29.42,29.42,0,0,1,221.34,543.17Zm611.81-101.5a29.42,29.42,0,0,1-26.95-17.6l-.43-1a29.41,29.41,0,0,1,53.76-23.89l.53,1.22a29.41,29.41,0,0,1-26.91,41.23Zm-586.07-.51a29.43,29.43,0,0,1-26.91-41.25l.54-1.22a29.41,29.41,0,1,1,53.74,23.91l-.43,1A29.41,29.41,0,0,1,247.08,441.16ZM775.7,353.54A29.32,29.32,0,0,1,754,344l-.76-.82a29.41,29.41,0,1,1,43.25-39.86l.87.93a29.41,29.41,0,0,1-21.68,49.29Zm-471-.45a29.41,29.41,0,0,1-21.62-49.34l.86-.93a29.41,29.41,0,0,1,43.16,40l-.76.82A29.35,29.35,0,0,1,304.7,353.09Zm388.15-64.47A29.25,29.25,0,0,1,678.8,285l-1-.53a29.41,29.41,0,1,1,28-51.73l1.14.61a29.42,29.42,0,0,1-14.11,55.24Zm-305.19-.28a29.41,29.41,0,0,1-14.07-55.26l1.14-.61a29.41,29.41,0,0,1,27.91,51.78l-1,.52A29.31,29.31,0,0,1,387.66,288.34ZM593.5,254.13a28.71,28.71,0,0,1-5-.44l-1-.16a29.41,29.41,0,1,1,9.53-58l1.4.24a29.41,29.41,0,0,1-5,58.4ZM487.05,254a29.41,29.41,0,0,1-4.85-58.42l1.3-.21a29.41,29.41,0,0,1,9.53,58l-1.06.18A29.43,29.43,0,0,1,487.05,254Z"/><path class="cls-1" d="M540,800.93h-1.42a29.41,29.41,0,0,1,.21-58.82h1.68a29.41,29.41,0,0,1,0,58.82V771.52l-.12,29.41Zm99.78-22.62A29.41,29.41,0,0,1,627,722.4l1-.49a29.41,29.41,0,0,1,25.61,53l-1.1.52A29.16,29.16,0,0,1,639.81,778.31ZM439.57,778a29.37,29.37,0,0,1-12.7-2.89l-1.28-.63a29.41,29.41,0,0,1,25.88-52.82l.84.41A29.41,29.41,0,0,1,439.57,778Zm280.88-63.72a29.41,29.41,0,0,1-22.87-47.88l.59-.74a29.41,29.41,0,1,1,46.06,36.58l-.87,1.09A29.33,29.33,0,0,1,720.45,714.29Zm-361.35-.55a29.37,29.37,0,0,1-23-11l-.95-1.2a29.41,29.41,0,0,1,46.33-36.25l.51.65a29.42,29.42,0,0,1-22.93,47.81Zm406.5-92a29.43,29.43,0,0,1-28.69-36l.24-1.05a29.41,29.41,0,0,1,57.38,13l-.29,1.25A29.43,29.43,0,0,1,765.6,621.7ZM314.24,621a29.43,29.43,0,0,1-28.64-22.85l-.29-1.3A29.41,29.41,0,0,1,342.71,584l.22,1a29.43,29.43,0,0,1-28.69,36ZM765.91,518.71a29.44,29.44,0,0,1-28.66-22.9l-.24-1.09a29.41,29.41,0,0,1,57.33-13.15l.27,1.2a29.45,29.45,0,0,1-28.7,35.94ZM314.25,518a29.45,29.45,0,0,1-28.72-35.89l.31-1.35a29.41,29.41,0,1,1,57.28,13.35l-.21.94A29.42,29.42,0,0,1,314.25,518ZM721.51,425.8a29.37,29.37,0,0,1-23.12-11.2l-.58-.73a29.41,29.41,0,0,1,45.89-36.8l.88,1.1a29.42,29.42,0,0,1-23.07,47.63Zm-362.58-.55a29.42,29.42,0,0,1-23-47.76l.83-1a29.41,29.41,0,0,1,45.79,36.93l-.64.8A29.36,29.36,0,0,1,358.93,425.25Zm282.29-64a29.26,29.26,0,0,1-12.91-3l-.93-.45A29.41,29.41,0,1,1,653,304.81l1.19.58a29.41,29.41,0,0,1-13,55.83Zm-201.82-.31A29.41,29.41,0,0,1,426.58,305l1.18-.57a29.41,29.41,0,1,1,25.35,53.08l-.92.44A29.25,29.25,0,0,1,439.4,360.91Zm101.53-23h-1.44a29.41,29.41,0,0,1,.26-58.82h1.31a29.41,29.41,0,0,1-.13,58.82Z"/><path class="cls-1" d="M540,712.7h-1.35a29.42,29.42,0,0,1,.22-58.83h1.7a29.41,29.41,0,0,1,0,58.82H540Zm91.6-33.16a29.41,29.41,0,0,1-18.88-52l.68-.57a29.41,29.41,0,0,1,38.09,44.82l-1,.88A29.28,29.28,0,0,1,631.6,679.54ZM448,679.17a29.31,29.31,0,0,1-18.85-6.84l-1-.89a29.41,29.41,0,1,1,38.09-44.81l.68.57a29.41,29.41,0,0,1-18.88,52ZM681,595a29.43,29.43,0,0,1-29-34.58l.17-1a29.41,29.41,0,0,1,57.95,10.1l-.22,1.22A29.41,29.41,0,0,1,681,595Zm-282.19-.56a29.42,29.42,0,0,1-28.92-24.26l-.25-1.47a29.41,29.41,0,1,1,58-9.6l.13.75a29.43,29.43,0,0,1-29,34.58Zm265.63-96a29.4,29.4,0,0,1-25.62-14.93l-.36-.63a29.41,29.41,0,0,1,50.79-29.67l.77,1.33a29.43,29.43,0,0,1-25.58,43.9ZM415.8,498a29.41,29.41,0,0,1-25.48-44.07l.78-1.32a29.41,29.41,0,1,1,50.59,30l-.36.63A29.42,29.42,0,0,1,415.8,498Zm174-62.91a29.52,29.52,0,0,1-10.17-1.82l-.93-.35a29.41,29.41,0,1,1,20.07-55.29l1.2.44a29.42,29.42,0,0,1-10.17,57Zm-99-.2a29.42,29.42,0,0,1-10.11-57l.94-.35a29.41,29.41,0,0,1,20.23,55.24l-1,.35A29.39,29.39,0,0,1,490.77,434.84Z"/><path class="cls-1" d="M540,624.47l-1.89,0a29.41,29.41,0,1,1,1.17-58.81h.94a29.42,29.42,0,0,1,.26,58.83Zm.22-28.7h0v0Zm48-52.88a29.39,29.39,0,0,1-25.85-15.34l-.21-.36A29.41,29.41,0,0,1,613,497.5c.37.63.73,1.26,1.08,1.9a29.42,29.42,0,0,1-25.8,43.49Zm-96-.94a29.42,29.42,0,0,1-25.42-44.17q.48-.84,1-1.65a29.4,29.4,0,1,1,50.24,30.57l-.35.6A29.39,29.39,0,0,1,492.26,542Z"/></svg>