<svg id="Capa_1" data-name="Capa 1" xmlns="http://www.w3.org/2000/svg" xmlns:xlink="http://www.w3.org/1999/xlink" viewBox="0 0 1080 1080"><defs><style>.cls-1{fill:url(#Nueva_muestra_de_degradado_5);}.cls-2{fill:url(#Nueva_muestra_de_degradado_5-2);}.cls-3{fill:url(#Nueva_muestra_de_degradado_5-3);}.cls-4{fill:url(#Nueva_muestra_de_degradado_5-4);}.cls-5{fill:url(#Nueva_muestra_de_degradado_5-5);}.cls-6{fill:url(#Nueva_muestra_de_degradado_5-6);}.cls-7{fill:url(#Nueva_muestra_de_degradado_5-7);}.cls-8{fill:url(#Nueva_muestra_de_degradado_5-8);}.cls-9{fill:url(#Nueva_muestra_de_degradado_5-9);}.cls-10{fill:url(#Nueva_muestra_de_degradado_5-10);}.cls-11{fill:url(#Nueva_muestra_de_degradado_5-11);}.cls-12{fill:url(#Nueva_muestra_de_degradado_5-12);}.cls-13{fill:url(#Nueva_muestra_de_degradado_5-13);}.cls-14{fill:url(#Nueva_muestra_de_degradado_5-14);}.cls-15{fill:url(#Nueva_muestra_de_degradado_5-15);}.cls-16{fill:url(#Nueva_muestra_de_degradado_5-16);}.cls-17{fill:url(#Nueva_muestra_de_degradado_5-17);}.cls-18{fill:url(#Nueva_muestra_de_degradado_5-18);}.cls-19{fill:url(#Nueva_muestra_de_degradado_5-19);}.cls-20{fill:url(#Nueva_muestra_de_degradado_5-20);}.cls-21{fill:url(#Nueva_muestra_de_degradado_5-21);}.cls-22{fill:url(#Nueva_muestra_de_degradado_5-22);}.cls-23{fill:url(#Nueva_muestra_de_degradado_5-23);}.cls-24{fill:url(#Nueva_muestra_de_degradado_5-24);}.cls-25{fill:url(#Nueva_muestra_de_degradado_5-25);}.cls-26{fill:url(#Nueva_muestra_de_degradado_5-26);}.cls-27{fill:url(#Nueva_muestra_de_degradado_5-27);}.cls-28{fill:url(#Nueva_muestra_de_degradado_5-28);}.cls-29{fill:url(#Nueva_muestra_de_degradado_5-29);}.cls-30{fill:url(#Nueva_muestra_de_degradado_5-30);}.cls-31{fill:url(#Nueva_muestra_de_degradado_5-31);}.cls-32{fill:url(#Nueva_muestra_de_degradado_5-32);}.cls-33{fill:url(#Nueva_muestra_de_degradado_5-33);}.cls-34{fill:url(#Nueva_muestra_de_degradado_5-34);}.cls-35{fill:url(#Nueva_muestra_de_degradado_5-35);}.cls-36{fill:url(#Nueva_muestra_de_degradado_5-36);}.cls-37{fill:url(#Nueva_muestra_de_degradado_5-37);}.cls-38{fill:url(#Nueva_muestra_de_degradado_5-38);}.cls-39{fill:url(#Nueva_muestra_de_degradado_5-39);}.cls-40{fill:url(#Nueva_muestra_de_degradado_5-40);}.cls-41{fill:url(#Nueva_muestra_de_degradado_5-41);}.cls-42{fill:url(#Nueva_muestra_de_degradado_5-42);}.cls-43{fill:url(#Nueva_muestra_de_degradado_5-43);}.cls-44{fill:url(#Nueva_muestra_de_degradado_5-44);}.cls-45{fill:url(#Nueva_muestra_de_degradado_5-45);}.cls-46{fill:url(#Nueva_muestra_de_degradado_5-46);}.cls-47{fill:url(#Nueva_muestra_de_degradado_5-47);}.cls-48{fill:url(#Nueva_muestra_de_degradado_5-48);}.cls-49{fill:url(#Nueva_muestra_de_degradado_5-49);}.cls-50{fill:url(#Nueva_muestra_de_degradado_5-50);}.cls-51{fill:url(#Nueva_muestra_de_degradado_5-51);}.cls-52{fill:url(#Nueva_muestra_de_degradado_5-52);}.cls-53{fill:url(#Nueva_muestra_de_degradado_5-53);}.cls-54{fill:url(#Nueva_muestra_de_degradado_5-54);}.cls-55{fill:url(#Nueva_muestra_de_degradado_5-55);}.cls-56{fill:url(#Nueva_muestra_de_degradado_5-56);}.cls-57{fill:url(#Nueva_muestra_de_degradado_5-57);}.cls-58{fill:url(#Nueva_muestra_de_degradado_5-58);}.cls-59{fill:url(#Nueva_muestra_de_degradado_5-59);}.cls-60{fill:url(#Nueva_muestra_de_degradado_5-60);}.cls-61{fill:url(#Nueva_muestra_de_degradado_5-61);}.cls-62{fill:url(#Nueva_muestra_de_degradado_5-62);}.cls-63{fill:url(#Nueva_muestra_de_degradado_5-63);}.cls-64{fill:url(#Nueva_muestra_de_degradado_5-64);}.cls-65{fill:url(#Nueva_muestra_de_degradado_5-65);}.cls-66{fill:url(#Nueva_muestra_de_degradado_5-66);}.cls-67{fill:url(#Nueva_muestra_de_degradado_5-67);}.cls-68{fill:url(#Nueva_muestra_de_degradado_5-68);}.cls-69{fill:url(#Nueva_muestra_de_degradado_5-69);}.cls-70{fill:url(#Nueva_muestra_de_degradado_5-70);}.cls-71{fill:url(#Nueva_muestra_de_degradado_5-71);}.cls-72{fill:url(#Nueva_muestra_de_degradado_5-72);}.cls-73{fill:url(#Nueva_muestra_de_degradado_5-73);}.cls-74{fill:url(#Nueva_muestra_de_degradado_5-74);}.cls-75{fill:url(#Nueva_muestra_de_degradado_5-75);}.cls-76{fill:url(#Nueva_muestra_de_degradado_5-76);}.cls-77{fill:url(#Nueva_muestra_de_degradado_5-77);}.cls-78{fill:url(#Nueva_muestra_de_degradado_5-78);}.cls-79{fill:url(#Nueva_muestra_de_degradado_5-79);}.cls-80{fill:url(#Nueva_muestra_de_degradado_5-80);}.cls-81{fill:url(#Nueva_muestra_de_degradado_5-81);}.cls-82{fill:url(#Nueva_muestra_de_degradado_5-82);}.cls-83{fill:url(#Nueva_muestra_de_degradado_5-83);}.cls-84{fill:url(#Nueva_muestra_de_degradado_5-84);}.cls-85{fill:url(#Nueva_muestra_de_degradado_5-85);}.cls-86{fill:url(#Nueva_muestra_de_degradado_5-86);}.cls-87{fill:url(#Nueva_muestra_de_degradado_5-87);}.cls-88{fill:url(#Nueva_muestra_de_degradado_5-88);}.cls-89{fill:url(#Nueva_muestra_de_degradado_5-89);}.cls-90{fill:url(#Nueva_muestra_de_degradado_5-90);}.cls-91{fill:url(#Nueva_muestra_de_degradado_5-91);}.cls-92{fill:url(#Nueva_muestra_de_degradado_5-92);}.cls-93{fill:url(#Nueva_muestra_de_degradado_5-93);}.cls-94{fill:url(#Nueva_muestra_de_degradado_5-94);}.cls-95{fill:url(#Nueva_muestra_de_degradado_5-95);}.cls-96{fill:url(#Nueva_muestra_de_degradado_5-96);}.cls-97{fill:url(#Nueva_muestra_de_degradado_5-97);}.cls-98{fill:url(#Nueva_muestra_de_degradado_5-98);}.cls-99{fill:url(#Nueva_muestra_de_degradado_5-99);}.cls-100{fill:url(#Nueva_muestra_de_degradado_5-100);}.cls-101{fill:url(#Nueva_muestra_de_degradado_5-101);}.cls-102{fill:url(#Nueva_muestra_de_degradado_5-102);}.cls-103{fill:url(#Nueva_muestra_de_degradado_5-103);}.cls-104{fill:url(#Nueva_muestra_de_degradado_5-104);}.cls-105{fill:url(#Nueva_muestra_de_degradado_5-105);}.cls-106{fill:url(#Nueva_muestra_de_degradado_5-106);}.cls-107{fill:url(#Nueva_muestra_de_degradado_5-107);}.cls-108{fill:url(#Nueva_muestra_de_degradado_5-108);}.cls-109{fill:url(#Nueva_muestra_de_degradado_5-109);}.cls-110{fill:url(#Nueva_muestra_de_degradado_5-110);}.cls-111{fill:url(#Nueva_muestra_de_degradado_5-111);}</style><linearGradient id="Nueva_muestra_de_degradado_5" x1="-29.29" y1="616" x2="1079.64" y2="481.37" gradientUnits="userSpaceOnUse"><stop offset="0" stop-color="#fb95f3"/><stop offset="1" stop-color="#252859"/></linearGradient><linearGradient id="Nueva_muestra_de_degradado_5-2" x1="-38.2" y1="542.6" x2="1070.72" y2="407.97" xlink:href="#Nueva_muestra_de_degradado_5"/><linearGradient id="Nueva_muestra_de_degradado_5-3" x1="-31.32" y1="599.25" x2="1077.6" y2="464.62" xlink:href="#Nueva_muestra_de_degradado_5"/><linearGradient id="Nueva_muestra_de_degradado_5-4" x1="-22.4" y1="672.76" x2="1086.53" y2="538.13" xlink:href="#Nueva_muestra_de_degradado_5"/><linearGradient id="Nueva_muestra_de_degradado_5-5" x1="-28.19" y1="625.05" x2="1080.73" y2="490.42" xlink:href="#Nueva_muestra_de_degradado_5"/><linearGradient id="Nueva_muestra_de_degradado_5-6" x1="-16.69" y1="719.8" x2="1092.24" y2="585.17" xlink:href="#Nueva_muestra_de_degradado_5"/><linearGradient id="Nueva_muestra_de_degradado_5-7" x1="-26.45" y1="639.36" x2="1082.47" y2="504.73" xlink:href="#Nueva_muestra_de_degradado_5"/><linearGradient id="Nueva_muestra_de_degradado_5-8" x1="-46.55" y1="473.79" x2="1062.37" y2="339.16" xlink:href="#Nueva_muestra_de_degradado_5"/><linearGradient id="Nueva_muestra_de_degradado_5-9" x1="-39.56" y1="531.42" x2="1069.37" y2="396.79" xlink:href="#Nueva_muestra_de_degradado_5"/><linearGradient id="Nueva_muestra_de_degradado_5-10" x1="-17.79" y1="710.72" x2="1091.14" y2="576.09" xlink:href="#Nueva_muestra_de_degradado_5"/><linearGradient id="Nueva_muestra_de_degradado_5-11" x1="-45.95" y1="478.74" x2="1062.97" y2="344.11" xlink:href="#Nueva_muestra_de_degradado_5"/><linearGradient id="Nueva_muestra_de_degradado_5-12" x1="-38.01" y1="544.15" x2="1070.91" y2="409.52" xlink:href="#Nueva_muestra_de_degradado_5"/><linearGradient id="Nueva_muestra_de_degradado_5-13" x1="-13.27" y1="747.96" x2="1095.66" y2="613.33" xlink:href="#Nueva_muestra_de_degradado_5"/><linearGradient id="Nueva_muestra_de_degradado_5-14" x1="-27.06" y1="634.34" x2="1081.86" y2="499.71" xlink:href="#Nueva_muestra_de_degradado_5"/><linearGradient id="Nueva_muestra_de_degradado_5-15" x1="-39.48" y1="532.1" x2="1069.45" y2="397.47" xlink:href="#Nueva_muestra_de_degradado_5"/><linearGradient id="Nueva_muestra_de_degradado_5-16" x1="-55.58" y1="399.42" x2="1053.34" y2="264.79" xlink:href="#Nueva_muestra_de_degradado_5"/><linearGradient id="Nueva_muestra_de_degradado_5-17" x1="-7.11" y1="798.65" x2="1101.81" y2="664.02" xlink:href="#Nueva_muestra_de_degradado_5"/><linearGradient id="Nueva_muestra_de_degradado_5-18" x1="-49.78" y1="447.19" x2="1059.14" y2="312.56" xlink:href="#Nueva_muestra_de_degradado_5"/><linearGradient id="Nueva_muestra_de_degradado_5-19" x1="-4.15" y1="823.05" x2="1104.77" y2="688.42" xlink:href="#Nueva_muestra_de_degradado_5"/><linearGradient id="Nueva_muestra_de_degradado_5-20" x1="-15.46" y1="729.89" x2="1093.46" y2="595.26" xlink:href="#Nueva_muestra_de_degradado_5"/><linearGradient id="Nueva_muestra_de_degradado_5-21" x1="-7.16" y1="798.29" x2="1101.77" y2="663.66" xlink:href="#Nueva_muestra_de_degradado_5"/><linearGradient id="Nueva_muestra_de_degradado_5-22" x1="-55.56" y1="399.63" x2="1053.37" y2="265" xlink:href="#Nueva_muestra_de_degradado_5"/><linearGradient id="Nueva_muestra_de_degradado_5-23" x1="-49.74" y1="447.52" x2="1059.18" y2="312.89" xlink:href="#Nueva_muestra_de_degradado_5"/><linearGradient id="Nueva_muestra_de_degradado_5-24" x1="-39.53" y1="531.68" x2="1069.4" y2="397.05" xlink:href="#Nueva_muestra_de_degradado_5"/><linearGradient id="Nueva_muestra_de_degradado_5-25" x1="-15.37" y1="730.64" x2="1093.55" y2="596.01" xlink:href="#Nueva_muestra_de_degradado_5"/><linearGradient id="Nueva_muestra_de_degradado_5-26" x1="-27.13" y1="633.79" x2="1081.8" y2="499.16" xlink:href="#Nueva_muestra_de_degradado_5"/><linearGradient id="Nueva_muestra_de_degradado_5-27" x1="-25.93" y1="643.64" x2="1082.99" y2="509.01" xlink:href="#Nueva_muestra_de_degradado_5"/><linearGradient id="Nueva_muestra_de_degradado_5-28" x1="4.67" y1="895.75" x2="1113.6" y2="761.12" xlink:href="#Nueva_muestra_de_degradado_5"/><linearGradient id="Nueva_muestra_de_degradado_5-29" x1="-20.81" y1="685.84" x2="1088.12" y2="551.21" xlink:href="#Nueva_muestra_de_degradado_5"/><linearGradient id="Nueva_muestra_de_degradado_5-30" x1="0.38" y1="860.39" x2="1109.31" y2="725.76" xlink:href="#Nueva_muestra_de_degradado_5"/><linearGradient id="Nueva_muestra_de_degradado_5-31" x1="-51.88" y1="429.95" x2="1057.05" y2="295.32" xlink:href="#Nueva_muestra_de_degradado_5"/><linearGradient id="Nueva_muestra_de_degradado_5-32" x1="-39.64" y1="530.75" x2="1069.29" y2="396.12" xlink:href="#Nueva_muestra_de_degradado_5"/><linearGradient id="Nueva_muestra_de_degradado_5-33" x1="-64.08" y1="329.47" x2="1044.85" y2="194.84" xlink:href="#Nueva_muestra_de_degradado_5"/><linearGradient id="Nueva_muestra_de_degradado_5-34" x1="-8.56" y1="786.71" x2="1100.36" y2="652.08" xlink:href="#Nueva_muestra_de_degradado_5"/><linearGradient id="Nueva_muestra_de_degradado_5-35" x1="-2.51" y1="836.57" x2="1106.41" y2="701.94" xlink:href="#Nueva_muestra_de_degradado_5"/><linearGradient id="Nueva_muestra_de_degradado_5-36" x1="3.67" y1="887.48" x2="1112.6" y2="752.85" xlink:href="#Nueva_muestra_de_degradado_5"/><linearGradient id="Nueva_muestra_de_degradado_5-37" x1="-65.09" y1="321.14" x2="1043.84" y2="186.51" xlink:href="#Nueva_muestra_de_degradado_5"/><linearGradient id="Nueva_muestra_de_degradado_5-38" x1="-60.82" y1="356.25" x2="1048.1" y2="221.62" xlink:href="#Nueva_muestra_de_degradado_5"/><linearGradient id="Nueva_muestra_de_degradado_5-39" x1="-47.49" y1="466.08" x2="1061.44" y2="331.45" xlink:href="#Nueva_muestra_de_degradado_5"/><linearGradient id="Nueva_muestra_de_degradado_5-40" x1="-12.89" y1="751.11" x2="1096.04" y2="616.48" xlink:href="#Nueva_muestra_de_degradado_5"/><linearGradient id="Nueva_muestra_de_degradado_5-41" x1="-34.48" y1="573.25" x2="1074.45" y2="438.62" xlink:href="#Nueva_muestra_de_degradado_5"/><linearGradient id="Nueva_muestra_de_degradado_5-42" x1="-57.88" y1="380.53" x2="1051.05" y2="245.9" xlink:href="#Nueva_muestra_de_degradado_5"/><linearGradient id="Nueva_muestra_de_degradado_5-43" x1="-24.83" y1="652.75" x2="1084.1" y2="518.12" xlink:href="#Nueva_muestra_de_degradado_5"/><linearGradient id="Nueva_muestra_de_degradado_5-44" x1="-0.04" y1="856.92" x2="1108.89" y2="722.29" xlink:href="#Nueva_muestra_de_degradado_5"/><linearGradient id="Nueva_muestra_de_degradado_5-45" x1="-73.56" y1="251.34" x2="1035.36" y2="116.71" xlink:href="#Nueva_muestra_de_degradado_5"/><linearGradient id="Nueva_muestra_de_degradado_5-46" x1="-70.27" y1="278.45" x2="1038.66" y2="143.82" xlink:href="#Nueva_muestra_de_degradado_5"/><linearGradient id="Nueva_muestra_de_degradado_5-47" x1="-60.27" y1="360.79" x2="1048.65" y2="226.16" xlink:href="#Nueva_muestra_de_degradado_5"/><linearGradient id="Nueva_muestra_de_degradado_5-48" x1="-62.55" y1="342.04" x2="1046.38" y2="207.41" xlink:href="#Nueva_muestra_de_degradado_5"/><linearGradient id="Nueva_muestra_de_degradado_5-49" x1="13.22" y1="966.11" x2="1122.14" y2="831.48" xlink:href="#Nueva_muestra_de_degradado_5"/><linearGradient id="Nueva_muestra_de_degradado_5-50" x1="-35.52" y1="564.67" x2="1073.4" y2="430.04" xlink:href="#Nueva_muestra_de_degradado_5"/><linearGradient id="Nueva_muestra_de_degradado_5-51" x1="-8.73" y1="785.31" x2="1100.19" y2="650.68" xlink:href="#Nueva_muestra_de_degradado_5"/><linearGradient id="Nueva_muestra_de_degradado_5-52" x1="-38.69" y1="538.59" x2="1070.24" y2="403.96" xlink:href="#Nueva_muestra_de_degradado_5"/><linearGradient id="Nueva_muestra_de_degradado_5-53" x1="-68.81" y1="290.47" x2="1040.11" y2="155.84" xlink:href="#Nueva_muestra_de_degradado_5"/><linearGradient id="Nueva_muestra_de_degradado_5-54" x1="-48.82" y1="455.15" x2="1060.11" y2="320.52" xlink:href="#Nueva_muestra_de_degradado_5"/><linearGradient id="Nueva_muestra_de_degradado_5-55" x1="-21.71" y1="678.43" x2="1087.22" y2="543.8" xlink:href="#Nueva_muestra_de_degradado_5"/><linearGradient id="Nueva_muestra_de_degradado_5-56" x1="2.16" y1="875.07" x2="1111.09" y2="740.44" xlink:href="#Nueva_muestra_de_degradado_5"/><linearGradient id="Nueva_muestra_de_degradado_5-57" x1="-11.49" y1="762.6" x2="1097.43" y2="627.97" xlink:href="#Nueva_muestra_de_degradado_5"/><linearGradient id="Nueva_muestra_de_degradado_5-58" x1="-51.66" y1="431.77" x2="1057.27" y2="297.14" xlink:href="#Nueva_muestra_de_degradado_5"/><linearGradient id="Nueva_muestra_de_degradado_5-59" x1="-74.05" y1="247.35" x2="1034.88" y2="112.72" xlink:href="#Nueva_muestra_de_degradado_5"/><linearGradient id="Nueva_muestra_de_degradado_5-60" x1="13.68" y1="969.95" x2="1122.61" y2="835.32" xlink:href="#Nueva_muestra_de_degradado_5"/><linearGradient id="Nueva_muestra_de_degradado_5-61" x1="9.89" y1="938.74" x2="1118.82" y2="804.11" xlink:href="#Nueva_muestra_de_degradado_5"/><linearGradient id="Nueva_muestra_de_degradado_5-62" x1="8.48" y1="927.06" x2="1117.4" y2="792.43" xlink:href="#Nueva_muestra_de_degradado_5"/><linearGradient id="Nueva_muestra_de_degradado_5-63" x1="-23.71" y1="661.95" x2="1085.21" y2="527.32" xlink:href="#Nueva_muestra_de_degradado_5"/><linearGradient id="Nueva_muestra_de_degradado_5-64" x1="12.9" y1="963.51" x2="1121.83" y2="828.88" xlink:href="#Nueva_muestra_de_degradado_5"/><linearGradient id="Nueva_muestra_de_degradado_5-65" x1="19.78" y1="1020.16" x2="1128.7" y2="885.53" xlink:href="#Nueva_muestra_de_degradado_5"/><linearGradient id="Nueva_muestra_de_degradado_5-66" x1="-43.7" y1="497.26" x2="1065.22" y2="362.63" xlink:href="#Nueva_muestra_de_degradado_5"/><linearGradient id="Nueva_muestra_de_degradado_5-67" x1="-52.16" y1="427.59" x2="1056.76" y2="292.96" xlink:href="#Nueva_muestra_de_degradado_5"/><linearGradient id="Nueva_muestra_de_degradado_5-68" x1="22.93" y1="1046.08" x2="1131.85" y2="911.45" xlink:href="#Nueva_muestra_de_degradado_5"/><linearGradient id="Nueva_muestra_de_degradado_5-69" x1="-77.02" y1="222.81" x2="1031.9" y2="88.18" xlink:href="#Nueva_muestra_de_degradado_5"/><linearGradient id="Nueva_muestra_de_degradado_5-70" x1="-83.32" y1="170.95" x2="1025.6" y2="36.32" xlink:href="#Nueva_muestra_de_degradado_5"/><linearGradient id="Nueva_muestra_de_degradado_5-71" x1="-64.43" y1="326.55" x2="1044.5" y2="191.92" xlink:href="#Nueva_muestra_de_degradado_5"/><linearGradient id="Nueva_muestra_de_degradado_5-72" x1="-29.31" y1="615.84" x2="1079.62" y2="481.21" xlink:href="#Nueva_muestra_de_degradado_5"/><linearGradient id="Nueva_muestra_de_degradado_5-73" x1="-74.15" y1="246.51" x2="1034.78" y2="111.88" xlink:href="#Nueva_muestra_de_degradado_5"/><linearGradient id="Nueva_muestra_de_degradado_5-74" x1="2.86" y1="880.79" x2="1111.78" y2="746.16" xlink:href="#Nueva_muestra_de_degradado_5"/><linearGradient id="Nueva_muestra_de_degradado_5-75" x1="-68.47" y1="293.24" x2="1040.45" y2="158.61" xlink:href="#Nueva_muestra_de_degradado_5"/><linearGradient id="Nueva_muestra_de_degradado_5-76" x1="17.52" y1="1001.6" x2="1126.45" y2="866.97" xlink:href="#Nueva_muestra_de_degradado_5"/><linearGradient id="Nueva_muestra_de_degradado_5-77" x1="-9.63" y1="777.89" x2="1099.29" y2="643.26" xlink:href="#Nueva_muestra_de_degradado_5"/><linearGradient id="Nueva_muestra_de_degradado_5-78" x1="-38.27" y1="542.02" x2="1070.66" y2="407.39" xlink:href="#Nueva_muestra_de_degradado_5"/><linearGradient id="Nueva_muestra_de_degradado_5-79" x1="-14.98" y1="733.85" x2="1093.94" y2="599.22" xlink:href="#Nueva_muestra_de_degradado_5"/><linearGradient id="Nueva_muestra_de_degradado_5-80" x1="-82.12" y1="180.83" x2="1026.8" y2="46.2" xlink:href="#Nueva_muestra_de_degradado_5"/><linearGradient id="Nueva_muestra_de_degradado_5-81" x1="-57.1" y1="386.91" x2="1051.82" y2="252.28" xlink:href="#Nueva_muestra_de_degradado_5"/><linearGradient id="Nueva_muestra_de_degradado_5-82" x1="-1.77" y1="842.65" x2="1107.15" y2="708.02" xlink:href="#Nueva_muestra_de_degradado_5"/><linearGradient id="Nueva_muestra_de_degradado_5-83" x1="9.33" y1="934.12" x2="1118.26" y2="799.49" xlink:href="#Nueva_muestra_de_degradado_5"/><linearGradient id="Nueva_muestra_de_degradado_5-84" x1="-80.61" y1="193.27" x2="1028.31" y2="58.64" xlink:href="#Nueva_muestra_de_degradado_5"/><linearGradient id="Nueva_muestra_de_degradado_5-85" x1="22.16" y1="1039.75" x2="1131.08" y2="905.12" xlink:href="#Nueva_muestra_de_degradado_5"/><linearGradient id="Nueva_muestra_de_degradado_5-86" x1="-22.61" y1="671.05" x2="1086.32" y2="536.42" xlink:href="#Nueva_muestra_de_degradado_5"/><linearGradient id="Nueva_muestra_de_degradado_5-87" x1="25.09" y1="1063.93" x2="1134.02" y2="929.3" xlink:href="#Nueva_muestra_de_degradado_5"/><linearGradient id="Nueva_muestra_de_degradado_5-88" x1="-8.02" y1="791.21" x2="1100.91" y2="656.58" xlink:href="#Nueva_muestra_de_degradado_5"/><linearGradient id="Nueva_muestra_de_degradado_5-89" x1="-90.61" y1="110.88" x2="1018.31" y2="-23.75" xlink:href="#Nueva_muestra_de_degradado_5"/><linearGradient id="Nueva_muestra_de_degradado_5-90" x1="-90.62" y1="110.81" x2="1018.3" y2="-23.82" xlink:href="#Nueva_muestra_de_degradado_5"/><linearGradient id="Nueva_muestra_de_degradado_5-91" x1="16.55" y1="993.61" x2="1125.48" y2="858.98" xlink:href="#Nueva_muestra_de_degradado_5"/><linearGradient id="Nueva_muestra_de_degradado_5-92" x1="-65.55" y1="317.35" x2="1043.38" y2="182.72" xlink:href="#Nueva_muestra_de_degradado_5"/><linearGradient id="Nueva_muestra_de_degradado_5-93" x1="-76.79" y1="224.75" x2="1032.14" y2="90.12" xlink:href="#Nueva_muestra_de_degradado_5"/><linearGradient id="Nueva_muestra_de_degradado_5-94" x1="32.2" y1="1122.44" x2="1141.12" y2="987.81" xlink:href="#Nueva_muestra_de_degradado_5"/><linearGradient id="Nueva_muestra_de_degradado_5-95" x1="16.51" y1="993.27" x2="1125.44" y2="858.64" xlink:href="#Nueva_muestra_de_degradado_5"/><linearGradient id="Nueva_muestra_de_degradado_5-96" x1="25.06" y1="1063.66" x2="1133.98" y2="929.03" xlink:href="#Nueva_muestra_de_degradado_5"/><linearGradient id="Nueva_muestra_de_degradado_5-97" x1="-7.96" y1="791.71" x2="1100.97" y2="657.08" xlink:href="#Nueva_muestra_de_degradado_5"/><linearGradient id="Nueva_muestra_de_degradado_5-98" x1="-52.26" y1="426.76" x2="1056.66" y2="292.13" xlink:href="#Nueva_muestra_de_degradado_5"/><linearGradient id="Nueva_muestra_de_degradado_5-99" x1="-85.27" y1="154.9" x2="1023.66" y2="20.27" xlink:href="#Nueva_muestra_de_degradado_5"/><linearGradient id="Nueva_muestra_de_degradado_5-100" x1="-92.42" y1="96.01" x2="1016.51" y2="-38.62" xlink:href="#Nueva_muestra_de_degradado_5"/><linearGradient id="Nueva_muestra_de_degradado_5-101" x1="-76.73" y1="225.2" x2="1032.19" y2="90.57" xlink:href="#Nueva_muestra_de_degradado_5"/><linearGradient id="Nueva_muestra_de_degradado_5-102" x1="-52.2" y1="427.32" x2="1056.73" y2="292.69" xlink:href="#Nueva_muestra_de_degradado_5"/><linearGradient id="Nueva_muestra_de_degradado_5-103" x1="-65.5" y1="317.74" x2="1043.43" y2="183.11" xlink:href="#Nueva_muestra_de_degradado_5"/><linearGradient id="Nueva_muestra_de_degradado_5-104" x1="-37.69" y1="546.8" x2="1071.23" y2="412.17" xlink:href="#Nueva_muestra_de_degradado_5"/><linearGradient id="Nueva_muestra_de_degradado_5-105" x1="30.41" y1="1107.7" x2="1139.33" y2="973.07" xlink:href="#Nueva_muestra_de_degradado_5"/><linearGradient id="Nueva_muestra_de_degradado_5-106" x1="-85.32" y1="154.51" x2="1023.61" y2="19.88" xlink:href="#Nueva_muestra_de_degradado_5"/><linearGradient id="Nueva_muestra_de_degradado_5-107" x1="30.38" y1="1107.52" x2="1139.31" y2="972.89" xlink:href="#Nueva_muestra_de_degradado_5"/><linearGradient id="Nueva_muestra_de_degradado_5-108" x1="5.34" y1="901.22" x2="1114.26" y2="766.59" xlink:href="#Nueva_muestra_de_degradado_5"/><linearGradient id="Nueva_muestra_de_degradado_5-109" x1="-37.61" y1="547.43" x2="1071.31" y2="412.8" xlink:href="#Nueva_muestra_de_degradado_5"/><linearGradient id="Nueva_muestra_de_degradado_5-110" x1="-22.6" y1="671.11" x2="1086.33" y2="536.48" xlink:href="#Nueva_muestra_de_degradado_5"/><linearGradient id="Nueva_muestra_de_degradado_5-111" x1="5.27" y1="900.68" x2="1114.2" y2="766.05" xlink:href="#Nueva_muestra_de_degradado_5"/></defs><path class="cls-1" d="M639.44,539.24c-.07,19-15,34-33.55,33.75-18.95-.23-33.26-15.11-33.15-34.48.11-19,15-33.94,33.56-33.79C625.11,504.87,639.52,519.87,639.44,539.24Z"/><path class="cls-2" d="M540.53,439c19.08,0,33.81,14.62,33.77,33.5,0,18.65-15.11,33.33-34.15,33.25a33.6,33.6,0,0,1-33.85-33.64C506.41,453.42,521.35,439,540.53,439Z"/><path class="cls-3" d="M440.56,538.08c0-19.19,14.46-34.08,33.16-34.15a33.68,33.68,0,0,1,33.59,33.94c-.05,19.19-14.79,34.08-33.71,34C455.05,571.9,440.56,557.05,440.56,538.08Z"/><path class="cls-4" d="M539.19,571.16c19.12-.11,34.41,14.81,34.31,33.5-.09,18.33-14.87,32.76-33.15,33.29-19.82.58-34.81-15.24-34.85-32.81C505.46,586,520,571.28,539.19,571.16Z"/><path class="cls-5" d="M651.83,538.71c0-17,13-30.23,29.55-30.1,16.71.13,29.34,13.37,29.31,30.74,0,16.71-13,29.87-29.42,29.9C664.61,569.28,651.81,556,651.83,538.71Z"/><path class="cls-6" d="M469.46,690.56a30,30,0,0,1-30.24-30,29.31,29.31,0,0,1,29.17-29.48,30.3,30.3,0,0,1,30.46,30.31A29.14,29.14,0,0,1,469.46,690.56Z"/><path class="cls-7" d="M436.67,587.19a29.35,29.35,0,0,1-29.47,29.53c-16.61,0-29.69-13.49-29.68-30.57a29.32,29.32,0,0,1,29.24-29.41C423.19,556.63,436.64,570.32,436.67,587.19Z"/><path class="cls-8" d="M564.07,370.11c17.35,0,30.4,12.7,30.38,29.59a29.11,29.11,0,0,1-29.17,29.37c-17.23.05-30.61-12.82-30.64-29.49A29.13,29.13,0,0,1,564.07,370.11Z"/><path class="cls-9" d="M678,448.28a29.39,29.39,0,0,1-29.44,29.5,30.47,30.47,0,0,1-30.14-30.24,29.35,29.35,0,0,1,29.44-29.48A30.43,30.43,0,0,1,678,448.28Z"/><path class="cls-10" d="M647.58,659.72a29.16,29.16,0,0,1-29.38-29.53A30.07,30.07,0,0,1,648,600.1a29.4,29.4,0,0,1,29.75,29.28C677.85,645.68,663.9,659.7,647.58,659.72Z"/><path class="cls-11" d="M468.57,446c-16.56-.48-29.67-13.94-29.12-29.9.57-16.58,14.88-30.31,30.88-29.63,16.82.72,29.61,14.06,29.08,30.32S484.75,446.42,468.57,446Z"/><path class="cls-12" d="M407.4,460.18a29.38,29.38,0,0,1,29.46,29.22c.16,17-13,30.57-29.62,30.6s-29.48-12.71-29.53-29C377.67,473.68,390.6,460.24,407.4,460.18Z"/><path class="cls-13" d="M534.16,677.86c0-16.64,13.52-29.62,30.65-29.52A29.31,29.31,0,0,1,594,678.14c-.07,16.61-13.25,29.26-30.45,29.25A29.14,29.14,0,0,1,534.16,677.86Z"/><path class="cls-14" d="M781.85,539.64c-.06,14.82-11,25.85-25.68,25.82S730.74,554,730.82,538.91c.07-14.67,11.34-26,25.75-25.91S781.9,524.52,781.85,539.64Z"/><path class="cls-15" d="M731.84,464.49c-14.41-.05-25.92-11.94-25.86-26.7a25.39,25.39,0,0,1,25.56-25.33c14.32.08,26,12.16,25.94,26.73A25.49,25.49,0,0,1,731.84,464.49Z"/><path class="cls-16" d="M489.39,336.35c0,14.49-11.71,25.79-26.68,25.76a25.46,25.46,0,0,1-25.39-25.54c.07-14.29,12.16-26,26.81-25.86A25.41,25.41,0,0,1,489.39,336.35Z"/><path class="cls-17" d="M636.55,717.66a26.53,26.53,0,0,1,26.53-26.14,25.52,25.52,0,0,1,25.42,25.53,26.51,26.51,0,0,1-26.56,26.15A25.46,25.46,0,0,1,636.55,717.66Z"/><path class="cls-18" d="M378.7,369.44c14.29,0,25.23,11.11,25.21,25.54a26.08,26.08,0,0,1-26.48,26.07,25.15,25.15,0,0,1-25.12-25.39A26.22,26.22,0,0,1,378.7,369.44Z"/><path class="cls-19" d="M565.77,728.29A25.53,25.53,0,0,1,591.68,753c.33,14.61-10.78,26.09-25.57,26.42-14.28.33-26.13-10.38-26.5-23.95C539.18,740,550.05,728.68,565.77,728.29Z"/><path class="cls-20" d="M377.45,656.26c14.07,0,26.11,12.08,26.23,26.21A25.55,25.55,0,0,1,378,708.05a26.67,26.67,0,0,1-26.2-26.17A25.59,25.59,0,0,1,377.45,656.26Z"/><path class="cls-21" d="M488.81,741.8a25.33,25.33,0,0,1-26.1,25.09,26,26,0,0,1-25.94-26.59,25.32,25.32,0,0,1,26.12-24.73C477.54,715.82,489,727.44,488.81,741.8Z"/><path class="cls-22" d="M566.08,298.58c14.91.13,26.38,11.39,26.27,25.76a25.52,25.52,0,0,1-25.61,25.36c-15.12,0-26.64-11.22-26.55-25.81A25.36,25.36,0,0,1,566.08,298.58Z"/><path class="cls-23" d="M688.91,361.25a25.37,25.37,0,0,1-25.3,25.57,26.55,26.55,0,0,1-26.49-26.2,25.22,25.22,0,0,1,25.35-25.46A26.13,26.13,0,0,1,688.91,361.25Z"/><path class="cls-24" d="M304.2,487.3c.06-15,11.42-26.55,26-26.45a25.49,25.49,0,0,1,25.37,25.55c-.08,15-11.46,26.53-26,26.43A25.31,25.31,0,0,1,304.2,487.3Z"/><path class="cls-25" d="M731.51,614a25.3,25.3,0,0,1,25.6,25.25,26.1,26.1,0,0,1-25.85,26.68,25.51,25.51,0,0,1-25.72-25.21A26.52,26.52,0,0,1,731.51,614Z"/><path class="cls-26" d="M304.06,589.78c.07-14.34,11.34-25.38,25.82-25.31s25.47,11.65,25.42,26.59a25.36,25.36,0,0,1-25.47,25.4C315.29,616.45,304,604.75,304.06,589.78Z"/><path class="cls-27" d="M810.08,539.33c0-12.9,9.06-22.16,21.6-22.13,12.32,0,21.49,9.65,21.41,22.44s-9.55,22.36-21.74,22.25S810.06,552.27,810.08,539.33Z"/><path class="cls-28" d="M539.42,852.27c-12.46,0-22-9.45-21.95-21.62s9.55-21.31,22.2-21.29,22,9.26,21.92,21.54S552,852.3,539.42,852.27Z"/><path class="cls-29" d="M270.71,672.56c-12.06.1-21.88-9.81-22-22.22a21.59,21.59,0,0,1,21.4-21.93c11.8-.13,21.91,10.09,22.07,22.33A21.46,21.46,0,0,1,270.71,672.56Z"/><path class="cls-30" d="M428.54,830.21c-12.46,0-22.67-9.87-22.64-21.92a21.7,21.7,0,0,1,21.74-21.56A22.3,22.3,0,0,1,450,808.9,21.36,21.36,0,0,1,428.54,830.21Z"/><path class="cls-31" d="M746.34,354.86a22.31,22.31,0,0,1-22.09-22.14,21.18,21.18,0,0,1,21.69-21.44,22.42,22.42,0,0,1,22.12,22.17C768.07,345.57,758.62,354.89,746.34,354.86Z"/><path class="cls-32" d="M809.2,405.65a22.08,22.08,0,0,1,21.92,22.28,21.52,21.52,0,0,1-21.53,21.77c-12.12,0-22-10.26-21.94-22.73A21.31,21.31,0,0,1,809.2,405.65Z"/><path class="cls-33" d="M428,291.35A21.23,21.23,0,0,1,406.47,270,22.19,22.19,0,0,1,429,248a21.6,21.6,0,0,1,21.56,21.44C450.66,281.57,440.54,291.36,428,291.35Z"/><path class="cls-34" d="M311.63,744.6a21.48,21.48,0,0,1,21.8-21.38c11.83.11,22.06,10.43,22.12,22.3a21.79,21.79,0,0,1-21.72,21.62C321.84,767.06,311.57,756.63,311.63,744.6Z"/><path class="cls-35" d="M767.61,745.33a22.27,22.27,0,0,1-22.35,22.23,21.27,21.27,0,0,1-21.41-21.43,22.5,22.5,0,0,1,22.41-22.25A21.21,21.21,0,0,1,767.61,745.33Z"/><path class="cls-36" d="M651.56,787.11a21.57,21.57,0,0,1,21.67,21.32c.17,12-10.14,22.14-22.52,22.22a21.62,21.62,0,0,1-21.61-21.39C629,797,639,787.19,651.56,787.11Z"/><path class="cls-37" d="M518.11,247.61c0-12.36,9.38-21.47,22-21.43,12.48,0,22,9.4,22,21.55S552.48,269.2,540,269.18,518.09,260,518.11,247.61Z"/><path class="cls-38" d="M651.68,291.53c-12.6-.35-22.5-10.4-22.09-22.42s10.19-21.45,21.8-21.12c12.51.36,22.68,10.54,22.34,22.35A21.58,21.58,0,0,1,651.68,291.53Z"/><path class="cls-39" d="M292.26,426.86c0,12.54-9.8,22.69-21.94,22.7A21.83,21.83,0,0,1,248.8,428a22.37,22.37,0,0,1,22.08-22.61A21.34,21.34,0,0,1,292.26,426.86Z"/><path class="cls-40" d="M787.55,651.65c0-12.62,9.77-22.44,22.14-22.32A21.29,21.29,0,0,1,830.9,651,22.1,22.1,0,0,1,809,673.29,21.14,21.14,0,0,1,787.55,651.65Z"/><path class="cls-41" d="M248.57,561c-12.28.06-21.68-9.39-21.73-21.84s9.26-22.19,21.38-22.29,21.7,9.6,21.76,21.95C270,551.29,260.75,560.91,248.57,561Z"/><path class="cls-42" d="M355.77,332.63a22.48,22.48,0,0,1-22.45,22.2A21.43,21.43,0,0,1,312,333.24a22.48,22.48,0,0,1,22.51-22.15A21.17,21.17,0,0,1,355.77,332.63Z"/><path class="cls-43" d="M889.17,539.49c0-10.6,7.29-18.26,17.4-18.28,10.28,0,17.68,7.7,17.68,18.45s-7.42,18.36-17.67,18.48A17.47,17.47,0,0,1,889.17,539.49Z"/><path class="cls-44" d="M836,773.38a17.47,17.47,0,0,1-17.55-17.64c.08-9.9,8.59-18.41,18.36-18.36a17.65,17.65,0,0,1,17.54,17.73A18.62,18.62,0,0,1,836,773.38Z"/><path class="cls-45" d="M425.91,208.34a17.35,17.35,0,0,1-17.34-17.78c.06-9.94,8.38-17.76,18.79-17.67a17.4,17.4,0,0,1,17.33,17.83C444.62,200.7,436.43,208.39,425.91,208.34Z"/><path class="cls-46" d="M635.16,190.14a17.48,17.48,0,0,1,17.94-17.25c10.4.19,18.38,8.17,18.23,18.24a17.4,17.4,0,0,1-17.94,17.21C643,208.22,635,200.23,635.16,190.14Z"/><path class="cls-47" d="M243.71,305.93a17.43,17.43,0,0,1,17.57,17.59c0,9.84-8.64,18.48-18.33,18.41a17.72,17.72,0,0,1-17.57-17.72A18.61,18.61,0,0,1,243.71,305.93Z"/><path class="cls-48" d="M756,260.59a18.42,18.42,0,0,1-18.54-18,17.48,17.48,0,0,1,17.51-17.69c9.92-.05,18.48,8.28,18.59,18.09A17.5,17.5,0,0,1,756,260.59Z"/><path class="cls-49" d="M652.28,906.2a17.65,17.65,0,0,1-17.55-17.72c.11-9.91,8.51-17.85,18.82-17.78a17.75,17.75,0,0,1,17.56,17.75C671,898.35,662.58,906.25,652.28,906.2Z"/><path class="cls-50" d="M173.31,521.21c10.12,0,17.61,7.86,17.52,18.33-.09,10.25-7.62,17.89-17.62,17.89s-17.5-7.78-17.46-18.33C155.79,528.84,163.31,521.18,173.31,521.21Z"/><path class="cls-51" d="M243.26,772.77a18.25,18.25,0,0,1-18-18.52A17.51,17.51,0,0,1,243,736.72a18.81,18.81,0,0,1,18,18.67A17.36,17.36,0,0,1,243.26,772.77Z"/><path class="cls-52" d="M871.12,425.4a17.47,17.47,0,0,1,17.59-17.61c9.84.09,17.88,8.56,17.86,18.8a17.84,17.84,0,0,1-17.76,17.6C878.82,444.1,871.1,435.9,871.12,425.4Z"/><path class="cls-53" d="M342.4,242.55a18.28,18.28,0,0,1-18.45,18A17.48,17.48,0,0,1,306.4,243,18.7,18.7,0,0,1,325,224.86,17.3,17.3,0,0,1,342.4,242.55Z"/><path class="cls-54" d="M208.88,425.59c-.07,10.33-8.12,18.69-17.95,18.63a17.8,17.8,0,0,1-17.57-17.77c.1-10.3,8.17-18.66,18-18.64A17.67,17.67,0,0,1,208.88,425.59Z"/><path class="cls-55" d="M208.69,653.15a17.37,17.37,0,0,1-17.54,17.62c-9.89,0-17.94-8.44-17.91-18.68a17.83,17.83,0,0,1,17.69-17.66C200.86,634.45,208.69,642.7,208.69,653.15Z"/><path class="cls-56" d="M324.57,853.8a18.29,18.29,0,0,1-18.39-18.13,17.33,17.33,0,0,1,17.59-17.52,18.45,18.45,0,0,1,18.41,18.17A17.28,17.28,0,0,1,324.57,853.8Z"/><path class="cls-57" d="M870.93,653.85c0-10.37,7.92-18.66,17.83-18.74a17.87,17.87,0,0,1,17.69,17.69c0,10.23-8.08,18.68-17.92,18.73A17.61,17.61,0,0,1,870.93,653.85Z"/><path class="cls-58" d="M836.46,305.93a18.25,18.25,0,0,1,18,18.51,17.55,17.55,0,0,1-17.73,17.49,18.54,18.54,0,0,1-17.92-18.68C818.82,313.31,826.4,305.88,836.46,305.93Z"/><path class="cls-59" d="M540.38,190.38c-10.37.19-18.31-7.16-18.67-17.29-.33-9.41,7.53-17.33,17.1-17.84,11.37-.61,19,7.76,19.3,17.27C558.4,182.26,550.48,190.2,540.38,190.38Z"/><path class="cls-60" d="M539.41,923.71c-10.2,0-17.93-7.57-17.94-17.55s7.82-17.55,18-17.68a17.68,17.68,0,0,1,18.24,17.72C557.68,916.29,549.92,923.72,539.41,923.71Z"/><path class="cls-61" d="M408.28,887.94A17.51,17.51,0,0,1,426,870.43c10.31.15,18.59,8.25,18.51,18.08A17.58,17.58,0,0,1,426.67,906C416.17,905.84,408.21,898.05,408.28,887.94Z"/><path class="cls-62" d="M754.58,854.28a17.2,17.2,0,0,1-17.37-17.69,18.51,18.51,0,0,1,18.5-18.05,17.44,17.44,0,0,1,17.43,17.75A18.38,18.38,0,0,1,754.58,854.28Z"/><path class="cls-63" d="M968.16,539.87c0-8.84,5.48-14.68,13.75-14.65,8,0,13.56,6,13.58,14.54s-5.82,14.87-13.81,14.78S968.16,548.32,968.16,539.87Z"/><path class="cls-64" d="M841,877a13.66,13.66,0,0,1-13.85-13.38c-.16-7.64,6.66-14.63,14.35-14.7a13.5,13.5,0,0,1,13.74,13.41A14.61,14.61,0,0,1,841,877Z"/><path class="cls-65" d="M743.43,918.44A13.45,13.45,0,0,1,757,932a14.55,14.55,0,0,1-14.63,14.34,13.67,13.67,0,0,1-13.58-13.65A14.35,14.35,0,0,1,743.43,918.44Z"/><path class="cls-66" d="M115.91,479c0,8.49-6,14.88-13.89,14.83a13.7,13.7,0,0,1-13.57-13.67c0-8.47,6-15,13.89-14.86A13.71,13.71,0,0,1,115.91,479Z"/><path class="cls-67" d="M917.42,295.78a14.63,14.63,0,0,1,13.89,15.05A13.71,13.71,0,0,1,916.94,324c-7.5-.35-13.82-7.39-13.54-15.08A13.57,13.57,0,0,1,917.42,295.78Z"/><path class="cls-68" d="M629.13,986.18a13.52,13.52,0,0,1-13.85-13.33c-.17-7.79,6.29-14,14.66-14.17a13.79,13.79,0,0,1,13.83,13.78C643.73,980.26,637.47,986.11,629.13,986.18Z"/><path class="cls-69" d="M285.64,164.87a13.41,13.41,0,0,1,13.5,13.61,14.7,14.7,0,0,1-14.62,14.36A13.75,13.75,0,0,1,271,179.13C271,171.37,277.7,164.82,285.64,164.87Z"/><path class="cls-70" d="M509.66,85.31c7.94-.11,13.92,5.55,14.11,13.33s-5.89,13.91-14.22,14c-7.95.06-14-5.66-14.14-13.35C495.28,91.26,501.23,85.42,509.66,85.31Z"/><path class="cls-71" d="M841.24,230.64c-7.7-.3-14.23-7.13-14-14.64s6.72-13.84,14.15-13.46c7.86.41,14.34,7.39,14,15.06A13.5,13.5,0,0,1,841.24,230.64Z"/><path class="cls-72" d="M115.89,600.39a13.67,13.67,0,0,1-13.49,13.74c-7.89.11-13.94-6.3-14-14.77A13.69,13.69,0,0,1,102,585.62C109.81,585.51,115.85,591.91,115.89,600.39Z"/><path class="cls-73" d="M742.68,133.44a14.18,14.18,0,0,1,14.42,14,13.43,13.43,0,0,1-13.75,13.69c-7.9-.09-14.51-6.5-14.53-14.09A13.49,13.49,0,0,1,742.68,133.44Z"/><path class="cls-74" d="M917,783.86a13.62,13.62,0,0,1-13.67-13.52,14.61,14.61,0,0,1,14.26-14.65,13.59,13.59,0,0,1,13.7,13.49C931.33,777,924.7,783.85,917,783.86Z"/><path class="cls-75" d="M197.47,246.91a13.62,13.62,0,0,1,13.78,13.43c.13,7.62-6.75,14.69-14.35,14.73a13.7,13.7,0,0,1-13.7-13.51A14.57,14.57,0,0,1,197.47,246.91Z"/><path class="cls-76" d="M391.13,942.41c8.41,0,14.79,6,14.78,13.91a13.52,13.52,0,0,1-13.55,13.61c-8.26.05-14.8-6.15-14.79-14A13.33,13.33,0,0,1,391.13,942.41Z"/><path class="cls-77" d="M979.07,659c0,8.43-6.1,14.76-14,14.65a13.63,13.63,0,0,1-13.46-13.73c0-8.38,6.13-14.65,14.14-14.56A13.2,13.2,0,0,1,979.07,659Z"/><path class="cls-78" d="M965.54,434.32c-7.92,0-14.08-6.57-14-14.83A13.51,13.51,0,0,1,965.28,406a14.23,14.23,0,0,1,14,14.79A13.77,13.77,0,0,1,965.54,434.32Z"/><path class="cls-79" d="M134.69,729.83a14.33,14.33,0,0,1-14-14.48,13.66,13.66,0,0,1,13.78-13.78c7.84,0,14.09,6.69,14,14.86A13.51,13.51,0,0,1,134.69,729.83Z"/><path class="cls-80" d="M405.92,123.14c0,8-6.27,14-14.71,14a13.26,13.26,0,0,1-13.49-13.53,14.27,14.27,0,0,1,14.71-14.09A13.52,13.52,0,0,1,405.92,123.14Z"/><path class="cls-81" d="M148.42,363.34c0,8.23-6.3,14.55-14.32,14.44A13.31,13.31,0,0,1,120.79,364c.07-8,6.29-14.5,14-14.53A13.57,13.57,0,0,1,148.42,363.34Z"/><path class="cls-82" d="M183.16,818.1a13.46,13.46,0,0,1,13.75-13.71c7.54.07,14.21,6.84,14.23,14.44a13.88,13.88,0,0,1-13.52,13.8C190.06,832.8,183.19,825.89,183.16,818.1Z"/><path class="cls-83" d="M299,900.87a13.34,13.34,0,0,1-13.34,13.72c-7.79.13-14.72-6.54-14.77-14.2a13.48,13.48,0,0,1,13.48-13.66A14.28,14.28,0,0,1,299,900.87Z"/><path class="cls-84" d="M630,120.76c-8.52-.06-14.59-6-14.5-14.1a13.28,13.28,0,0,1,13.71-13.33c8.46,0,14.72,6.1,14.59,14.08A13.54,13.54,0,0,1,630,120.76Z"/><path class="cls-85" d="M523.61,980.67c0,7.82-5.91,13.57-13.84,13.53-8.47-.05-14.4-5.72-14.39-13.75,0-7.76,5.91-13.49,13.88-13.5C517.77,967,523.64,972.55,523.61,980.67Z"/><path class="cls-86" d="M1066.65,540.37c-.11,6.45-4,10.48-10,10.38s-9.58-4.46-9.47-11.29c.1-6.29,4.19-10.39,10.19-10.22C1063.09,529.39,1066.76,533.79,1066.65,540.37Z"/><path class="cls-87" d="M833.64,955.78a9.7,9.7,0,0,1,9.93,9.59c0,5.3-5.1,10.39-10.59,10.48a9.85,9.85,0,0,1-9.89-9.7C823,960.66,828,955.83,833.64,955.78Z"/><path class="cls-88" d="M72.18,779.72a9.48,9.48,0,0,1,9.7-9.7c5.51,0,10.26,5,10.24,10.73a10,10,0,0,1-9.86,9.77C76.74,790.46,72.17,785.56,72.18,779.72Z"/><path class="cls-89" d="M366.47,56.34A10.29,10.29,0,0,1,356,66.59a9.75,9.75,0,0,1-9.83-9.72c-.05-5.62,4.66-10.16,10.61-10.24A9.59,9.59,0,0,1,366.47,56.34Z"/><path class="cls-90" d="M591.67,26.62A9.57,9.57,0,0,1,601.46,17c6.23,0,10.86,4.27,10.81,9.89a9.87,9.87,0,0,1-9.9,9.68C596.11,36.52,591.64,32.39,591.67,26.62Z"/><path class="cls-91" d="M936.66,882.72a10.57,10.57,0,0,1-10.32,10.52,9.39,9.39,0,0,1-9.76-9.61A10.86,10.86,0,0,1,926.88,873,9.71,9.71,0,0,1,936.66,882.72Z"/><path class="cls-92" d="M927.22,207a10.71,10.71,0,0,1-10.63-10.25,9.59,9.59,0,0,1,9.46-10,10.84,10.84,0,0,1,10.66,10.28A9.59,9.59,0,0,1,927.22,207Z"/><path class="cls-93" d="M833.94,124.25a10.72,10.72,0,0,1-10.85-10.06,9.86,9.86,0,0,1,9.63-9.94c5.68-.1,10.95,5,10.87,10.49A9.62,9.62,0,0,1,833.94,124.25Z"/><path class="cls-94" d="M601.66,1063.05a9.6,9.6,0,0,1-9.9-9.56c-.07-5.75,4.41-10,10.63-10a9.7,9.7,0,0,1,9.89,9.63C612.36,1058.87,608,1063,601.66,1063.05Z"/><path class="cls-95" d="M256.16,966a9.38,9.38,0,0,1-9.6,9.44A10.7,10.7,0,0,1,236,964.81a9.63,9.63,0,0,1,9.66-9.47A10.66,10.66,0,0,1,256.16,966Z"/><path class="cls-96" d="M355.77,1013.5a10.42,10.42,0,0,1,10.84,10,9.6,9.6,0,0,1-9.58,9.88c-6.07,0-10.74-4.25-10.82-9.93A9.65,9.65,0,0,1,355.77,1013.5Z"/><path class="cls-97" d="M1041.9,674.43a9.5,9.5,0,0,1-9.83-9.56c0-6.23,4.08-10.75,9.83-10.8a9.53,9.53,0,0,1,9.84,9.57C1051.79,669.85,1047.65,674.38,1041.9,674.43Z"/><path class="cls-98" d="M997.34,289.22a10.29,10.29,0,0,1,10.19,10.54,9.42,9.42,0,0,1-9.72,9.64,10.48,10.48,0,0,1-10.26-10.56A9.53,9.53,0,0,1,997.34,289.22Z"/><path class="cls-99" d="M236,114.87a10.41,10.41,0,0,1,10.6-10.18,9.47,9.47,0,0,1,9.69,9.69c0,5.47-5,10.29-10.63,10.27A9.59,9.59,0,0,1,236,114.87Z"/><path class="cls-100" d="M477.51,17.11c5.75-.07,9.86,3.77,10,9.33.12,6-4,10-10.35,10.13a9.5,9.5,0,0,1-10-9.72C467.12,21.08,471.28,17.19,477.51,17.11Z"/><path class="cls-101" d="M142.87,197.64a10.77,10.77,0,0,1,10.44-10.49,9.64,9.64,0,0,1,9.69,9.79c0,5.46-5.08,10.56-10.45,10.56A9.75,9.75,0,0,1,142.87,197.64Z"/><path class="cls-102" d="M28.06,416.81c0-6.25,4.13-10.61,10-10.59a9.4,9.4,0,0,1,9.7,9.66c0,6.16-4.28,10.69-10,10.69A9.55,9.55,0,0,1,28.06,416.81Z"/><path class="cls-103" d="M81.79,310a9.38,9.38,0,0,1-9.61-9.74c0-6,4.47-10.55,10.18-10.53a9.63,9.63,0,0,1,9.76,9.71A10.62,10.62,0,0,1,81.79,310Z"/><path class="cls-104" d="M1042,425.92c-5.79-.05-9.9-4.51-9.88-10.73a9.49,9.49,0,0,1,9.77-9.64c5.73,0,9.9,4.57,9.9,10.75A9.51,9.51,0,0,1,1042,425.92Z"/><path class="cls-105" d="M722.63,1033.45a9.52,9.52,0,0,1-9.86-9.55c0-5.61,4.68-10.09,10.66-10.14a9.62,9.62,0,0,1,9.86,9.61C733.34,1029,728.68,1033.4,722.63,1033.45Z"/><path class="cls-106" d="M723.4,66.22c-6,0-10.66-4.39-10.63-10.07a9.48,9.48,0,0,1,9.79-9.62c6,0,10.78,4.57,10.72,10.09A9.63,9.63,0,0,1,723.4,66.22Z"/><path class="cls-107" d="M477.67,1063c-6.4-.17-10.6-4.23-10.45-10.09a9.59,9.59,0,0,1,10.31-9.46c6.09.24,10.28,4.42,10.13,10.11A9.56,9.56,0,0,1,477.67,1063Z"/><path class="cls-108" d="M1007.53,780.21a10.52,10.52,0,0,1-10.13,10.72,9.73,9.73,0,0,1-9.85-9.66c0-5.76,4.68-10.66,10.2-10.68A9.48,9.48,0,0,1,1007.53,780.21Z"/><path class="cls-109" d="M13.35,539.88c0-6,3.84-10,9.63-10s9.84,4.25,9.78,10.3C32.7,546,28.57,550.26,23,550.26,17.16,550.26,13.31,546.12,13.35,539.88Z"/><path class="cls-110" d="M38,653.59c5.71.08,9.85,4.73,9.71,10.9a9.56,9.56,0,0,1-10,9.45c-5.74-.16-9.78-4.74-9.69-11C28.15,657.49,32.36,653.51,38,653.59Z"/><path class="cls-111" d="M163,883a9.67,9.67,0,0,1-9.65,9.82,10.65,10.65,0,0,1-10.48-10.38,9.36,9.36,0,0,1,9.58-9.76A10.73,10.73,0,0,1,163,883Z"/></svg>