<svg id="Capa_1" data-name="Capa 1" xmlns="http://www.w3.org/2000/svg" viewBox="0 0 1080 1080"><defs><style>.cls-1{fill:#fb95f3;}</style></defs><path class="cls-1" d="M304.3,668.31c-.05,7.89-8,15.46-16.24,15.54-7.88.08-15.27-7.57-15.18-15.72.09-8.59,6.91-15.65,15.1-15.64C296.41,652.5,304.35,660.2,304.3,668.31Z"/><path class="cls-1" d="M57,668.37c-.05,8.26-7.7,15.71-16,15.57-8-.14-14.79-7.56-14.69-16.15.09-8.16,7.23-15.42,15-15.29A16.07,16.07,0,0,1,57,668.37Z"/><path class="cls-1" d="M914.59,652.49c8.1.07,16.15,8,16.06,15.84s-8.58,15.79-16.44,15.48-14.94-7.64-14.92-15.61C899.3,659.75,906.44,652.42,914.59,652.49Z"/><path class="cls-1" d="M807,668.42c-.16,8-7.43,15.36-15.16,15.42-8,.06-16.32-8-16.2-15.73.11-7.94,8.19-15.69,16.27-15.62S807.15,660.06,807,668.42Z"/><path class="cls-1" d="M149.93,668.32c0-8.58,7.15-15.93,15.48-15.83,8.07.1,15.18,7.45,15.19,15.71s-7.18,15.63-15.31,15.65S150,676.55,149.93,668.32Z"/><path class="cls-1" d="M1053.6,667.89c0,8.66-7,16-15.33,16-7.79,0-15.38-7.78-15.35-15.73,0-8.17,7.38-15.54,15.38-15.66C1045.38,652.35,1055,660.18,1053.6,667.89Z"/><path class="cls-1" d="M427.93,668c-.15,8.31-7.84,15.92-15.9,15.72s-15.63-8-15.45-15.66c.18-7.88,7.93-15.55,15.69-15.54S428.07,660.46,427.93,668Z"/><path class="cls-1" d="M683.35,668.08c0,7.84-7.67,15.77-15.35,15.77-8.25,0-15.14-7.12-15.14-15.62s6.67-15.56,14.54-15.73C675.71,652.32,683.29,659.73,683.35,668.08Z"/><path class="cls-1" d="M550.67,668.17a15.24,15.24,0,0,1-15,15.66c-7.43.14-15.35-7.89-15.5-15.71s7.87-15.78,16-15.61C544.05,652.67,550.65,659.79,550.67,668.17Z"/><path class="cls-1" d="M412.46,930.51c-8.85,0-15-6.28-15-15.37,0-8.68,6.33-15.27,14.68-15.31,8.84-.05,14.9,6.25,14.89,15.45C427,924.25,421.06,930.47,412.46,930.51Z"/><path class="cls-1" d="M302.39,544.49c0,9.29-5.83,15.6-14.58,15.75-8,.14-15-7.29-14.93-15.77.08-8.31,7.35-15.75,15.25-15.63C296.34,529,302.38,535.61,302.39,544.49Z"/><path class="cls-1" d="M682.42,915.2c0,9-5.9,15.25-14.44,15.31-8.92.06-15.11-6.2-15.13-15.29,0-8.83,6.46-15.42,15.15-15.39C676.4,899.85,682.41,906.26,682.42,915.2Z"/><path class="cls-1" d="M521.16,915.31c0-9,6-15.43,14.33-15.48,8.71-.05,15.17,6.48,15.18,15.34,0,9.13-6.1,15.38-15,15.34C527.08,930.47,521.12,924.23,521.16,915.31Z"/><path class="cls-1" d="M535.32,806.85c-8.5-.08-14.24-6.35-14.16-15.44s6.49-15.44,15.17-15.23c8,.19,14.36,7.11,14.34,15.75C550.65,800.9,544.44,807,535.32,806.85Z"/><path class="cls-1" d="M412.2,806.86c-8.6,0-14.76-6.32-14.74-15.07s6.58-15.68,15-15.61S427,782.72,427,791.48C427.05,800.74,421.14,806.87,412.2,806.86Z"/><path class="cls-1" d="M1038.48,528.88c7.63-.18,14.79,7.23,14.93,15.46a15.49,15.49,0,0,1-14.93,15.89c-7.94.21-14.46-6.43-14.62-14.91C1023.67,535.8,1029.64,529.09,1038.48,528.88Z"/><path class="cls-1" d="M682.42,545.32c-.17,8.44-6.73,15.12-14.63,14.91a15.49,15.49,0,0,1-14.93-15.89c.14-8.23,7.31-15.65,14.93-15.46C676.64,529.1,682.6,535.8,682.42,545.32Z"/><path class="cls-1" d="M550.67,544.7c-.06,8.41-6.76,15.5-14.7,15.54-8.59,0-14.93-6.9-14.81-16.26.1-8.05,6.74-14.92,14.59-15.1C543.76,528.69,550.73,536.08,550.67,544.7Z"/><path class="cls-1" d="M535.5,405.92c9.07,0,15.22,6.08,15.17,15.07,0,8.56-6.52,15.51-14.54,15.61-8.64.11-14.92-6.36-15-15.43S527,406,535.5,405.92Z"/><path class="cls-1" d="M427,544.47c0,8.81-6.63,15.85-14.87,15.77-7.9-.08-14.66-7.23-14.7-15.57,0-8.58,7-16,15-15.79S427,536.09,427,544.47Z"/><path class="cls-1" d="M41.64,405.92c8.51.06,14.28,6.29,14.26,15.38,0,8.73-6.28,15.25-14.67,15.3s-14.91-7-14.9-15.72C26.34,411.93,32.55,405.86,41.64,405.92Z"/><path class="cls-1" d="M427,421.07c0,9-6.36,15.62-14.93,15.53-8-.08-14.57-7.07-14.64-15.54-.07-9,6.13-15.17,15.13-15.14C421.13,406,427.06,412.17,427,421.07Z"/><path class="cls-1" d="M55.9,544.59c0,8.76-6.77,15.82-15,15.65-7.92-.16-14.58-7.33-14.59-15.68s6.59-15.47,14.59-15.68S55.91,536,55.9,544.59Z"/><path class="cls-1" d="M41.16,806.86c-8.64,0-14.81-6.22-14.83-15s6.47-15.73,14.84-15.72,14.67,6.47,14.73,15.17C56,800.58,50,806.85,41.16,806.86Z"/><path class="cls-1" d="M412.5,26.88c8.62,0,14.55,6.16,14.53,15.05s-6.34,15.62-14.4,15.62c-8.37,0-15-6.91-15.21-15.55C397.21,34.81,403.49,25.53,412.5,26.88Z"/><path class="cls-1" d="M1023.85,791.41c0-9.09,6.24-15.38,15.05-15.23,7.82.12,14.5,7.35,14.51,15.7,0,8.81-6.4,15-15.41,15C1029.55,806.79,1023.83,800.54,1023.85,791.41Z"/><path class="cls-1" d="M682.42,791.54c0,9.24-5.88,15.34-14.78,15.32a14.51,14.51,0,0,1-14.78-15.11c.12-8.43,6.78-15.52,14.63-15.57C676.31,776.11,682.41,782.38,682.42,791.54Z"/><path class="cls-1" d="M287.9,405.92c9,0,14.45,5.6,14.49,14.94s-6.05,15.84-14.55,15.74A15.16,15.16,0,0,1,273,420.8C273.57,411.23,279.52,405.43,287.9,405.92Z"/><path class="cls-1" d="M667.87,405.92c8.59,0,14.53,6.13,14.55,15.05,0,9.16-6,15.59-14.7,15.63-8.05,0-15-7.34-14.86-15.87S659.17,405.94,667.87,405.92Z"/><path class="cls-1" d="M150.91,544.8c-1-9.27,6.08-15.58,14.35-15.9s14.09,6.66,14.49,15.48c.49,10.91-7.79,15.39-14.62,15.81C158.49,560.59,149.54,553.94,150.91,544.8Z"/><path class="cls-1" d="M536,26.88c7.09-1.32,15,6.55,14.73,15-.23,8.61-6.79,15.66-15.06,15.71s-14.54-6.71-14.5-15.95C521.2,32.89,527.26,26.87,536,26.88Z"/><path class="cls-1" d="M302.39,791.76c0,9.28-5.57,14.93-14.42,15.14s-14.35-5.62-15-14.86a15.11,15.11,0,0,1,14.74-15.86C296.44,776.19,302.4,782.52,302.39,791.76Z"/><path class="cls-1" d="M302.39,42c0,8.92-6,15.47-14.29,15.54A15.15,15.15,0,0,1,273,42c.33-9.22,6.13-15.52,15.14-15.19S302.38,32.59,302.39,42Z"/><path class="cls-1" d="M1038.29,405.92c8.71,0,15,6.08,15.12,14.74s-6.9,16.06-15.3,15.94-14.28-6.66-14.26-15.55S1029.74,405.93,1038.29,405.92Z"/><path class="cls-1" d="M302.39,915c0,9.3-5.85,15.5-14.68,15.5-8.43,0-14.86-6.21-14.67-15.1.22-9.87,6.34-15.57,14.8-15.58S302.37,906.15,302.39,915Z"/><path class="cls-1" d="M806.19,544.75c0,8.92-6.06,15.65-14.35,15.42a14.6,14.6,0,0,1-14.57-15.77c.48-9,6.12-15.49,14.43-15.56S806.21,535.45,806.19,544.75Z"/><path class="cls-1" d="M928.9,544.5c0,9.21-6.19,15.89-14.58,15.73s-14.22-6.57-14.23-15.56c0-9.28,6.18-16,14.56-15.83S928.9,535.47,928.9,544.5Z"/><path class="cls-1" d="M668.29,26.88c8.41.06,14.23,6.42,14.13,15.43-.1,8.73-6.51,15.39-14.66,15.24s-15-7.29-14.9-15.84C652.93,32.88,659.23,26.82,668.29,26.88Z"/><path class="cls-1" d="M806.18,41.76c0,9.27-6,15.83-14.45,15.8s-14.33-6.46-14.36-15.4c0-9.85,5.11-15.29,14.44-15.28C800.94,26.89,806.16,32.3,806.18,41.76Z"/><path class="cls-1" d="M777.37,915.1c0-8.86,6-15.24,14.31-15.27,8.58,0,14.52,6.37,14.5,15.63s-5.63,15-14.39,15C782.7,930.51,777.35,924.8,777.37,915.1Z"/><path class="cls-1" d="M150.91,791.14c0-8.53,6.08-15,14.07-15,8.75,0,14.7,6.3,14.69,15.52,0,9.48-5.59,15.21-14.76,15.15S150.88,801.33,150.91,791.14Z"/><path class="cls-1" d="M928.9,421.07c0,9-5.88,15.39-14.21,15.53-8.48.14-14.61-6.41-14.6-15.61,0-9.74,5.24-15.11,14.67-15.07C923.67,406,928.91,411.59,928.9,421.07Z"/><path class="cls-1" d="M777.37,420.9c0-9.48,5.22-14.95,14.27-15,9.29,0,14.55,5.49,14.54,15.24,0,8.93-5.95,15.36-14.29,15.44S777.36,430.15,777.37,420.9Z"/><path class="cls-1" d="M150.91,421c0-9.59,5.1-15,14.17-15,9.23,0,14.59,5.59,14.59,15.27,0,8.92-6,15.37-14.33,15.41S150.9,430.17,150.91,421Z"/><path class="cls-1" d="M900.09,915.12c0-8.87,6-15.25,14.27-15.29,8.6,0,14.56,6.35,14.54,15.59,0,9.44-5.63,15.14-14.88,15.09C905.36,930.46,900.08,924.62,900.09,915.12Z"/><path class="cls-1" d="M900.09,791.93c0-9.1,5.87-15.73,14-15.75,8.82,0,14.79,6.24,14.8,15.52s-5.41,15.12-14.29,15.15S900.11,801.22,900.09,791.93Z"/><path class="cls-1" d="M179.67,915.24c0,9-5.86,15.22-14.45,15.27-8.88,0-14.3-5.65-14.31-15.07,0-9.7,5.45-15.64,14.39-15.61C173.67,899.85,179.66,906.27,179.67,915.24Z"/><path class="cls-1" d="M806.18,791.94c0,9.29-5.53,14.93-14.52,14.91s-14.35-5.82-14.29-15.63c.06-8.65,6-15,14.27-15C800.19,776.1,806.22,782.63,806.18,791.94Z"/><path class="cls-1" d="M682.42,165.23c-.07,8.51-6.27,15-14.38,15.05s-15-6.93-15.17-15.13,7.32-15.63,15.45-15.35S682.48,156.72,682.42,165.23Z"/><path class="cls-1" d="M427,165c0,8.66-6.35,15.23-14.73,15.25-7.95,0-14.91-7.19-14.83-15.36.08-7.93,7-15,14.64-15.13C420.11,149.69,427,156.76,427,165Z"/><path class="cls-1" d="M302.39,165.37c-.05,8.54-6.23,14.92-14.43,14.91a15.38,15.38,0,0,1-15-15.24c0-8.12,7-15.26,15.06-15.24S302.44,156.58,302.39,165.37Z"/><path class="cls-1" d="M412.33,1053.26c-8.61,0-14.9-6.3-14.87-14.94,0-8.46,6.17-14.72,14.49-14.78,8.79-.07,15,6,15.07,14.66S420.92,1053.24,412.33,1053.26Z"/><path class="cls-1" d="M550.67,165.24c-.12,8.26-7.11,15.21-15.12,15-8.38-.18-14.47-6.77-14.39-15.54.08-8,7.15-15.22,14.7-14.93A15.4,15.4,0,0,1,550.67,165.24Z"/><path class="cls-1" d="M55.9,297.91c-.07,8.72-6.34,15.07-14.84,15A15,15,0,0,1,26.3,297.67c.05-6.71,6-15.35,15.23-14.6C49.78,283.75,56,289.53,55.9,297.91Z"/><path class="cls-1" d="M412.67,283.21c8.29,0,14.42,6.33,14.36,14.71-.07,8.71-6.35,15.06-14.85,15-8.22,0-14.71-6.82-14.73-15.31C397.43,291.05,403.34,281.88,412.67,283.21Z"/><path class="cls-1" d="M536.22,283.21a14.21,14.21,0,0,1,14.45,14.69c-.13,8.57-6.65,15.13-14.95,15-8.56-.09-14.57-6.38-14.56-15.25C521.17,289.18,527.43,283.16,536.22,283.21Z"/><path class="cls-1" d="M535.86,1023.53a14.42,14.42,0,0,1,14.8,15c-.1,8.45-6.27,14.69-14.57,14.73-8.73,0-14.91-6-14.93-14.75S527.19,1023.54,535.86,1023.53Z"/><path class="cls-1" d="M1023.85,297.83c0-8.95,5.86-14.68,14.83-14.63,8.16.05,14.71,6.31,14.73,14.06A15.24,15.24,0,0,1,1038,312.93C1029.87,312.82,1023.81,306.35,1023.85,297.83Z"/><path class="cls-1" d="M150.91,165.08c0-8.91,6.09-15.35,14.44-15.28,8.18.07,14.36,6.79,14.32,15.57,0,8.51-6.18,14.82-14.36,14.93C159,180.38,149.56,174.6,150.91,165.08Z"/><path class="cls-1" d="M682.42,298.13c0,8.44-6.23,14.79-14.43,14.81A14.94,14.94,0,0,1,652.86,298c0-8.75,6.39-14.9,15.42-14.84C676.49,283.26,682.45,289.56,682.42,298.13Z"/><path class="cls-1" d="M667.45,1023.53c8.71,0,14.93,6.07,15,14.71s-6.09,15-14.67,15a14.48,14.48,0,0,1-14.89-15C652.93,1029.86,659.14,1023.58,667.45,1023.53Z"/><path class="cls-1" d="M928.9,165.36c0,8.55-6.22,14.93-14.45,14.92s-14.4-6.52-14.36-15.49c0-8.5,6.28-15,14.4-15C922.82,149.8,929,156.41,928.9,165.36Z"/><path class="cls-1" d="M806.18,165.41c-.06,8.54-6.26,14.9-14.48,14.87-8.37,0-14.39-6.56-14.33-15.51.06-8.52,6.36-15,14.48-15C800.19,149.87,806.25,156.47,806.18,165.41Z"/><path class="cls-1" d="M288.32,283.2c8.64.07,14.09,5.83,14.07,14.9,0,8.53-6.19,14.85-14.46,14.84S272.55,306,273,297.7C273.61,288,280.13,282.46,288.32,283.2Z"/><path class="cls-1" d="M806.18,297.78c0,8.81-6.13,15.21-14.55,15.15-8.18-.05-14.23-6.4-14.26-15,0-9.37,5.31-14.79,14.55-14.77C800.82,283.23,806.16,288.69,806.18,297.78Z"/><path class="cls-1" d="M900.09,297.74c0-9.28,5.43-14.6,14.76-14.54,8.73.07,14.1,5.73,14,14.82,0,8.54-6.17,14.9-14.36,14.92C906.17,313,900.06,306.53,900.09,297.74Z"/><path class="cls-1" d="M287.9,1053.26a14.41,14.41,0,0,1-14.82-15c.12-8.49,6.29-14.71,14.59-14.72,8.5,0,14.64,6,14.72,14.52C302.47,1047,296.54,1053.22,287.9,1053.26Z"/><path class="cls-1" d="M150.91,297.83c0-9.37,5.32-14.68,14.63-14.63,8.68.06,14.16,5.77,14.13,14.75,0,8.57-6.08,14.93-14.27,15C157,313,150.89,306.65,150.91,297.83Z"/><path class="cls-1" d="M777.37,1038.33c0-8.84,5.68-14.74,14.22-14.8,8.89,0,14.59,5.81,14.59,15,0,8.73-5.8,14.72-14.3,14.75C783,1053.29,777.36,1047.5,777.37,1038.33Z"/></svg>