<svg id="Capa_1" data-name="Capa 1" xmlns="http://www.w3.org/2000/svg" xmlns:xlink="http://www.w3.org/1999/xlink" viewBox="0 0 2948.85 2378.3"><defs><style>.cls-1{fill:#fb95f3;}.cls-2,.cls-3,.cls-4{fill:none;stroke:#fb95f3;}.cls-2{stroke-miterlimit:10;stroke-width:28px;}.cls-3,.cls-4{stroke-linecap:round;stroke-linejoin:round;}.cls-3{stroke-width:40px;}.cls-4{stroke-width:30px;}.cls-5{fill:url(#Nueva_muestra_de_degradado_5);}.cls-6{fill:#f2f2f2;}.cls-7{fill:#5a438e;}.cls-8{fill:#9155bf;}.cls-9{fill:#b476dd;}.cls-10{fill:#252859;}.cls-11{fill:#dc8cea;}</style><linearGradient id="Nueva_muestra_de_degradado_5" x1="1142.77" y1="1499.24" x2="1739.7" y2="902.3" gradientUnits="userSpaceOnUse"><stop offset="0" stop-color="#fb95f3"/><stop offset="1" stop-color="#252859"/></linearGradient></defs><circle class="cls-1" cx="1441.05" cy="1200.59" r="422.28"/><circle class="cls-2" cx="1058.83" cy="380.21" r="75.46"/><circle class="cls-2" cx="467.43" cy="1007.92" r="94.32"/><circle class="cls-2" cx="1106.64" cy="1794.64" r="87.86"/><circle class="cls-2" cx="2404.25" cy="1646.59" r="100.86"/><circle class="cls-2" cx="2067.85" cy="569.18" r="89.88"/><line class="cls-3" x1="429.63" y1="435.61" x2="1104.24" y2="945.85"/><line class="cls-3" x1="1687.4" y1="455.66" x2="1573.67" y2="799.56"/><line class="cls-3" x1="2279.44" y1="980.91" x2="1849.63" y2="1093.53"/><line class="cls-3" x1="1727.04" y1="1861.94" x2="1608.7" y2="1588.27"/><line class="cls-3" x1="658.69" y1="1505.68" x2="1047.53" y2="1354.05"/><line class="cls-4" x1="1149.74" y1="1718.07" x2="1233.87" y2="1568.63"/><line class="cls-4" x1="561.75" y1="1026.89" x2="1026.77" y2="1120.43"/><line class="cls-4" x1="1089.4" y1="459.32" x2="1233.69" y2="832.65"/><line class="cls-4" x1="2004.53" y1="632.97" x2="1738.55" y2="900.9"/><line class="cls-4" x1="2314.19" y1="1601.15" x2="1832.88" y2="1358.32"/><rect class="cls-5" x="1019.14" y="778.67" width="844.19" height="844.19" rx="422.1"/><path class="cls-6" d="M1466.15,951.5a221.16,221.16,0,0,1,27.1,3.7,226.88,226.88,0,0,1,77.83,29.92c36.12,22.12,64.37,51.89,85.34,88.6a188.15,188.15,0,0,1,10,19.42c3.27,7.67.8,15.27-6.08,18.63s-15.08.59-18.74-6.9c-5.47-11.2-11.2-22.23-18.25-32.53-22.07-32.25-50.17-57.63-85.72-74.3a198.15,198.15,0,0,0-81.82-18.88,200.61,200.61,0,0,0-80,14.58A206.51,206.51,0,0,0,1315,1032.1c-24.43,22-42.67,48.34-55.54,78.46a239,239,0,0,0-13.23,41.57c-1.84,8.22-8.38,13.07-15.7,11.88-7.58-1.24-12.71-7.59-11.64-15.37a121.56,121.56,0,0,1,3.89-17,259.49,259.49,0,0,1,32.69-71.61c21.78-32.94,49.5-59.57,84-79a234.83,234.83,0,0,1,89.06-28.6c2.75-.32,5.34-.68,8.24-.93C1448.39,950.51,1456.36,950.94,1466.15,951.5Z"/><path class="cls-6" d="M1452.84,1443.55c-7.52.08-15.12.49-22.57-1.22-10.25-2.36-14.81-12-9.77-20.68,2.88-5,7.52-7.35,13-6.65,18.21,2.34,36.28,1.11,54.14-2.34a199.8,199.8,0,0,0,67.63-26.61c32.18-19.89,57-47,77.51-78.41,2.56-3.93,4.46-8.46,9.18-10.67a13.37,13.37,0,0,1,15.13,2c4.66,4.25,6.06,9.83,3.51,15.49-2.94,6.55-7.31,12.28-11.44,18.1-11,15.46-22.86,30.18-36.55,43.34-28.22,27.13-60.66,47.34-98.34,58.57A222.18,222.18,0,0,1,1452.84,1443.55Z"/><path class="cls-6" d="M1346.27,1426.68a26.67,26.67,0,0,1,.38-53.33,27,27,0,0,1,26.5,26.73A26.66,26.66,0,0,1,1346.27,1426.68Z"/><path class="cls-6" d="M1244.24,1331.82a26.55,26.55,0,0,1,26.63-26.8,26.65,26.65,0,1,1-.12,53.3A26.53,26.53,0,0,1,1244.24,1331.82Z"/><path class="cls-6" d="M1206.66,1238.76c-.65-15.73,13.09-26.63,26.23-26.72a26.67,26.67,0,0,1,0,53.34C1218,1265.31,1206.65,1253.78,1206.66,1238.76Z"/><circle class="cls-7" cx="1755.65" cy="249.31" r="217.63"/><circle class="cls-8" cx="496.21" cy="1569.04" r="178.18"/><circle class="cls-9" cx="2585.77" cy="900.65" r="335.1"/><circle class="cls-10" cx="1827.13" cy="2093.38" r="260.38"/><circle class="cls-11" cx="289.19" cy="329.39" r="260.94"/></svg>